<svg width="788" height="109" viewBox="0 0 788 109" fill="none" xmlns="http://www.w3.org/2000/svg">
<path d="M0.904 5.77599V104.56C0.904 105.52 1.384 106 2.344 106H20.344C21.304 106 21.784 105.52 21.784 104.56V71.584C21.784 70.624 22.264 70.144 23.224 70.144H48.28C53.656 70.144 58.216 69.376 61.96 67.84C65.704 66.208 68.728 63.904 71.032 60.928C73.336 57.952 75.016 54.4 76.072 50.272C77.128 46.144 77.656 41.536 77.656 36.448C77.656 31.552 77.128 27.04 76.072 22.912C75.016 18.784 73.336 15.232 71.032 12.256C68.728 9.27999 65.704 6.97599 61.96 5.34399C58.216 3.616 53.656 2.752 48.28 2.752H2.344C1.384 2.752 0.904 3.232 0.904 4.192V5.77599ZM50.728 21.472C52.456 21.472 53.8 22.096 54.76 23.344C55.816 24.496 56.584 25.888 57.064 27.52C57.544 29.152 57.832 30.832 57.928 32.56C58.12 34.192 58.216 35.488 58.216 36.448C58.216 37.408 58.12 38.752 57.928 40.48C57.832 42.112 57.544 43.744 57.064 45.376C56.584 47.008 55.816 48.448 54.76 49.696C53.8 50.848 52.456 51.424 50.728 51.424H23.224C22.264 51.424 21.784 50.944 21.784 49.984V22.912C21.784 21.952 22.264 21.472 23.224 21.472H50.728ZM85.279 4.192V104.56C85.279 105.52 85.759 106 86.719 106H104.719C105.679 106 106.159 105.52 106.159 104.56V69.28C106.159 68.32 106.639 67.84 107.599 67.84H125.167C129.295 68.416 132.031 71.392 133.375 76.768L142.303 101.968C142.495 102.64 142.927 103.504 143.599 104.56C144.271 105.52 144.895 106 145.471 106H165.343C165.919 106 166.207 105.76 166.207 105.28C166.207 105.088 165.919 104.704 165.343 104.128C164.863 103.456 164.527 102.736 164.335 101.968L156.415 77.632C155.647 75.328 154.783 73.12 153.823 71.008C152.959 68.8 151.423 66.256 149.215 63.376C149.119 63.184 149.071 62.992 149.071 62.8C149.071 62.512 149.119 62.272 149.215 62.08C149.407 61.888 149.551 61.744 149.647 61.648C152.143 60.304 154.111 58.864 155.551 57.328C156.991 55.696 158.383 53.92 159.727 52C161.743 48.16 162.751 42.016 162.751 33.568V30.256C162.463 21.136 160.159 14.32 155.839 9.80799C153.343 7.21599 150.799 5.39199 148.207 4.336C145.615 3.28 142.975 2.752 140.287 2.752H86.719C85.759 2.752 85.279 3.232 85.279 4.192ZM135.823 21.472C137.935 21.76 139.759 23.488 141.295 26.656C141.775 27.616 142.063 28.672 142.159 29.824C142.351 30.88 142.447 32.08 142.447 33.424C142.447 36.112 142.063 38.56 141.295 40.768C140.623 42.976 139.615 44.656 138.271 45.808C136.639 47.152 135.151 47.824 133.807 47.824H107.743C106.687 47.824 106.159 47.344 106.159 46.384V22.912C106.159 21.952 106.639 21.472 107.599 21.472H135.823ZM172.309 55.168C172.309 60.832 172.357 65.728 172.453 69.856C172.549 73.984 172.837 77.344 173.317 79.936C174.085 83.68 174.901 87.04 175.765 90.016C176.629 92.992 177.781 95.44 179.221 97.36C181.141 99.856 183.541 102.064 186.421 103.984C189.301 105.808 192.373 107.104 195.637 107.872C197.941 108.352 200.965 108.64 204.709 108.736C208.453 108.832 212.917 108.88 218.101 108.88C223.285 108.88 227.749 108.832 231.493 108.736C235.237 108.64 238.261 108.352 240.565 107.872C243.829 107.104 246.901 105.808 249.781 103.984C252.661 102.064 255.061 99.856 256.981 97.36C258.421 95.44 259.573 92.992 260.437 90.016C261.301 87.04 262.117 83.68 262.885 79.936C263.365 77.344 263.653 73.984 263.749 69.856C263.845 65.728 263.893 60.832 263.893 55.168V54.304C263.893 48.64 263.845 43.744 263.749 39.616C263.653 35.488 263.365 32.128 262.885 29.536C262.117 25.792 261.301 22.432 260.437 19.456C259.573 16.48 258.421 14.032 256.981 12.112C255.061 9.616 252.661 7.456 249.781 5.632C246.901 3.712 243.829 2.368 240.565 1.6C238.261 1.12 235.237 0.831998 231.493 0.735999C227.749 0.639995 223.285 0.591992 218.101 0.591992C212.917 0.591992 208.453 0.639995 204.709 0.735999C200.965 0.831998 197.941 1.12 195.637 1.6C192.373 2.368 189.301 3.712 186.421 5.632C183.541 7.456 181.141 9.616 179.221 12.112C177.781 14.032 176.629 16.48 175.765 19.456C174.901 22.432 174.085 25.792 173.317 29.536C172.837 32.128 172.549 35.488 172.453 39.616C172.357 43.744 172.309 48.64 172.309 54.304V55.168ZM218.101 20.464C221.077 20.464 223.909 20.56 226.597 20.752C229.285 20.848 231.589 21.136 233.509 21.616C236.965 22.48 239.413 24.208 240.853 26.8C242.293 29.296 243.013 33.088 243.013 38.176V71.296C243.013 76.384 242.293 80.224 240.853 82.816C239.413 85.312 236.965 86.992 233.509 87.856C231.589 88.336 229.285 88.672 226.597 88.864C223.909 88.96 221.077 89.008 218.101 89.008C215.125 89.008 212.293 88.96 209.605 88.864C206.917 88.672 204.613 88.336 202.693 87.856C199.237 86.992 196.789 85.312 195.349 82.816C193.909 80.224 193.189 76.384 193.189 71.296V38.176C193.189 33.088 193.909 29.296 195.349 26.8C196.789 24.208 199.237 22.48 202.693 21.616C204.613 21.136 206.917 20.848 209.605 20.752C212.293 20.56 215.125 20.464 218.101 20.464ZM319.046 22.912C319.046 21.952 319.526 21.472 320.486 21.472H343.958C344.918 21.472 345.398 20.992 345.398 20.032V4.192C345.398 3.232 344.918 2.752 343.958 2.752H273.254C272.294 2.752 271.814 3.232 271.814 4.192V20.032C271.814 20.992 272.294 21.472 273.254 21.472H296.726C297.686 21.472 298.166 21.952 298.166 22.912V104.56C298.166 105.52 298.646 106 299.606 106H317.606C318.566 106 319.046 105.52 319.046 104.56V22.912ZM353.293 55.168C353.293 60.832 353.341 65.728 353.437 69.856C353.533 73.984 353.821 77.344 354.301 79.936C355.069 83.68 355.885 87.04 356.749 90.016C357.613 92.992 358.765 95.44 360.205 97.36C362.125 99.856 364.525 102.064 367.405 103.984C370.285 105.808 373.357 107.104 376.621 107.872C378.925 108.352 381.949 108.64 385.693 108.736C389.437 108.832 393.901 108.88 399.085 108.88C404.269 108.88 408.733 108.832 412.477 108.736C416.221 108.64 419.245 108.352 421.549 107.872C424.813 107.104 427.885 105.808 430.765 103.984C433.645 102.064 436.045 99.856 437.965 97.36C439.405 95.44 440.557 92.992 441.421 90.016C442.285 87.04 443.101 83.68 443.869 79.936C444.349 77.344 444.637 73.984 444.733 69.856C444.829 65.728 444.877 60.832 444.877 55.168V54.304C444.877 48.64 444.829 43.744 444.733 39.616C444.637 35.488 444.349 32.128 443.869 29.536C443.101 25.792 442.285 22.432 441.421 19.456C440.557 16.48 439.405 14.032 437.965 12.112C436.045 9.616 433.645 7.456 430.765 5.632C427.885 3.712 424.813 2.368 421.549 1.6C419.245 1.12 416.221 0.831998 412.477 0.735999C408.733 0.639995 404.269 0.591992 399.085 0.591992C393.901 0.591992 389.437 0.639995 385.693 0.735999C381.949 0.831998 378.925 1.12 376.621 1.6C373.357 2.368 370.285 3.712 367.405 5.632C364.525 7.456 362.125 9.616 360.205 12.112C358.765 14.032 357.613 16.48 356.749 19.456C355.885 22.432 355.069 25.792 354.301 29.536C353.821 32.128 353.533 35.488 353.437 39.616C353.341 43.744 353.293 48.64 353.293 54.304V55.168ZM399.085 20.464C402.061 20.464 404.893 20.56 407.581 20.752C410.269 20.848 412.573 21.136 414.493 21.616C417.949 22.48 420.397 24.208 421.837 26.8C423.277 29.296 423.997 33.088 423.997 38.176V71.296C423.997 76.384 423.277 80.224 421.837 82.816C420.397 85.312 417.949 86.992 414.493 87.856C412.573 88.336 410.269 88.672 407.581 88.864C404.893 88.96 402.061 89.008 399.085 89.008C396.109 89.008 393.277 88.96 390.589 88.864C387.901 88.672 385.597 88.336 383.677 87.856C380.221 86.992 377.773 85.312 376.333 82.816C374.893 80.224 374.173 76.384 374.173 71.296V38.176C374.173 33.088 374.893 29.296 376.333 26.8C377.773 24.208 380.221 22.48 383.677 21.616C385.597 21.136 387.901 20.848 390.589 20.752C393.277 20.56 396.109 20.464 399.085 20.464ZM500.031 22.912C500.031 21.952 500.511 21.472 501.471 21.472H524.943C525.903 21.472 526.383 20.992 526.383 20.032V4.192C526.383 3.232 525.903 2.752 524.943 2.752H454.239C453.279 2.752 452.799 3.232 452.799 4.192V20.032C452.799 20.992 453.279 21.472 454.239 21.472H477.711C478.671 21.472 479.151 21.952 479.151 22.912V104.56C479.151 105.52 479.631 106 480.591 106H498.591C499.551 106 500.031 105.52 500.031 104.56V22.912ZM586.694 106C588.038 106 588.71 104.8 588.71 102.4V70.288C589.766 70 590.918 69.424 592.166 68.56C593.414 67.696 594.71 66.352 596.054 64.528L622.838 4.768C623.03 4.288 623.03 3.856 622.838 3.472C622.742 2.992 622.358 2.752 621.686 2.752H602.246C601.19 2.752 600.374 3.424 599.798 4.768L580.07 48.832C579.686 49.312 579.35 49.696 579.062 49.984C578.87 50.176 578.438 50.272 577.766 50.272C576.71 50.272 575.942 49.792 575.462 48.832L555.014 4.47999C554.534 3.328 553.718 2.752 552.566 2.752H532.694C531.446 2.752 531.206 3.472 531.974 4.912L559.622 64.528C560.678 66.352 561.926 67.696 563.366 68.56C564.902 69.424 566.15 70 567.11 70.288V102.4C567.11 104.8 567.83 106 569.27 106H586.694ZM631.607 5.77599V104.56C631.607 105.52 632.087 106 633.047 106H651.047C652.007 106 652.487 105.52 652.487 104.56V71.584C652.487 70.624 652.967 70.144 653.927 70.144H678.983C684.359 70.144 688.919 69.376 692.663 67.84C696.407 66.208 699.431 63.904 701.735 60.928C704.039 57.952 705.719 54.4 706.775 50.272C707.831 46.144 708.359 41.536 708.359 36.448C708.359 31.552 707.831 27.04 706.775 22.912C705.719 18.784 704.039 15.232 701.735 12.256C699.431 9.27999 696.407 6.97599 692.663 5.34399C688.919 3.616 684.359 2.752 678.983 2.752H633.047C632.087 2.752 631.607 3.232 631.607 4.192V5.77599ZM681.431 21.472C683.159 21.472 684.503 22.096 685.463 23.344C686.519 24.496 687.287 25.888 687.767 27.52C688.247 29.152 688.535 30.832 688.631 32.56C688.823 34.192 688.919 35.488 688.919 36.448C688.919 37.408 688.823 38.752 688.631 40.48C688.535 42.112 688.247 43.744 687.767 45.376C687.287 47.008 686.519 48.448 685.463 49.696C684.503 50.848 683.159 51.424 681.431 51.424H653.927C652.967 51.424 652.487 50.944 652.487 49.984V22.912C652.487 21.952 652.967 21.472 653.927 21.472H681.431ZM715.838 90.88C715.838 92.704 716.222 94.528 716.99 96.352C717.854 98.08 718.958 99.664 720.302 101.104C721.646 102.544 723.182 103.744 724.91 104.704C726.638 105.568 728.366 106 730.094 106H785.822C786.782 106 787.262 105.52 787.262 104.56V88.72C787.262 87.76 786.782 87.28 785.822 87.28H738.158C737.198 87.28 736.718 86.8 736.718 85.84V64.96C736.718 64 737.198 63.52 738.158 63.52H782.366C783.326 63.52 783.806 63.04 783.806 62.08V45.52C783.806 44.56 783.326 44.08 782.366 44.08H738.158C737.198 44.08 736.718 43.6 736.718 42.64V23.056C736.718 22 737.198 21.472 738.158 21.472H785.822C786.782 21.472 787.262 20.992 787.262 20.032V4.192C787.262 3.232 786.638 2.752 785.39 2.752H736.574C729.854 2.752 724.718 4.816 721.166 8.944C717.614 12.976 715.838 18.256 715.838 24.784V90.88Z" fill="#E5E5E5"/>
</svg>
