<svg width="788" height="109" viewBox="0 0 788 109" fill="none" xmlns="http://www.w3.org/2000/svg">
<path d="M61.96 67.84L62.7191 69.6903L62.7392 69.6821L62.7592 69.6734L61.96 67.84ZM71.032 60.928L69.4506 59.7036L69.4506 59.7037L71.032 60.928ZM76.072 50.272L74.1344 49.7763L74.1344 49.7763L76.072 50.272ZM71.032 12.256L69.4506 13.4803L69.4506 13.4803L71.032 12.256ZM61.96 5.34399L61.1219 7.15991L61.1413 7.16885L61.1608 7.17738L61.96 5.34399ZM54.76 23.344L53.1748 24.5634L53.2274 24.6318L53.2857 24.6955L54.76 23.344ZM57.928 32.56L55.9311 32.6709L55.9345 32.7325L55.9417 32.7937L57.928 32.56ZM57.928 40.48L55.9402 40.2591L55.9345 40.3107L55.9315 40.3626L57.928 40.48ZM57.064 45.376L55.1453 44.8117L55.1453 44.8117L57.064 45.376ZM54.76 49.696L53.2332 48.4041L53.2284 48.4099L53.2236 48.4156L54.76 49.696ZM-1.096 5.77599V104.56H2.904V5.77599H-1.096ZM-1.096 104.56C-1.096 105.348 -0.897573 106.307 -0.150213 107.054C0.597146 107.802 1.55571 108 2.344 108V104C2.17229 104 2.41085 103.958 2.67821 104.226C2.94557 104.493 2.904 104.732 2.904 104.56H-1.096ZM2.344 108H20.344V104H2.344V108ZM20.344 108C21.1323 108 22.0909 107.802 22.8382 107.054C23.5856 106.307 23.784 105.348 23.784 104.56H19.784C19.784 104.732 19.7424 104.493 20.0098 104.226C20.2771 103.958 20.5157 104 20.344 104V108ZM23.784 104.56V71.584H19.784V104.56H23.784ZM23.784 71.584C23.784 71.4123 23.8256 71.6509 23.5582 71.9182C23.2909 72.1856 23.0523 72.144 23.224 72.144V68.144C22.4357 68.144 21.4771 68.3424 20.7298 69.0898C19.9824 69.8371 19.784 70.7957 19.784 71.584H23.784ZM23.224 72.144H48.28V68.144H23.224V72.144ZM48.28 72.144C53.8355 72.144 58.6693 71.3518 62.7191 69.6903L61.2009 65.9897C57.7628 67.4002 53.4765 68.144 48.28 68.144V72.144ZM62.7592 69.6734C66.784 67.919 70.0867 65.4161 72.6134 62.1523L69.4506 59.7037C67.3693 62.3919 64.624 64.497 61.1608 66.0066L62.7592 69.6734ZM72.6134 62.1523C75.1054 58.9336 76.8948 55.1254 78.0096 50.7677L74.1344 49.7763C73.1372 53.6746 71.5666 56.9704 69.4506 59.7036L72.6134 62.1523ZM78.0096 50.7677C79.1141 46.45 79.656 41.6719 79.656 36.448H75.656C75.656 41.4001 75.1419 45.838 74.1344 49.7763L78.0096 50.7677ZM79.656 36.448C79.656 31.4091 79.1127 26.7282 78.0096 22.4163L74.1344 23.4077C75.1433 27.3518 75.656 31.6949 75.656 36.448H79.656ZM78.0096 22.4163C76.8948 18.0586 75.1054 14.2504 72.6134 11.0316L69.4506 13.4803C71.5666 16.2136 73.1372 19.5094 74.1344 23.4077L78.0096 22.4163ZM72.6134 11.0317C70.0867 7.76792 66.784 5.26502 62.7592 3.5106L61.1608 7.17738C64.624 8.68697 67.3693 10.7921 69.4506 13.4803L72.6134 11.0317ZM62.7981 3.52807C58.7243 1.64787 53.8612 0.751999 48.28 0.751999V4.752C53.4508 4.752 57.7077 5.58413 61.1219 7.15991L62.7981 3.52807ZM48.28 0.751999H2.344V4.752H48.28V0.751999ZM2.344 0.751999C1.55571 0.751999 0.597147 0.950425 -0.150213 1.69778C-0.897573 2.44514 -1.096 3.40371 -1.096 4.192H2.904C2.904 4.02029 2.94557 4.25885 2.67821 4.52621C2.41085 4.79357 2.17229 4.752 2.344 4.752V0.751999ZM-1.096 4.192V5.77599H2.904V4.192H-1.096ZM50.728 23.472C51.9046 23.472 52.6338 23.8602 53.1748 24.5634L56.3453 22.1246C54.9662 20.3318 53.0074 19.472 50.728 19.472V23.472ZM53.2857 24.6955C54.1176 25.603 54.7436 26.7188 55.1453 28.0843L58.9827 26.9557C58.4244 25.0572 57.5144 23.389 56.2343 21.9925L53.2857 24.6955ZM55.1453 28.0843C55.5811 29.5662 55.8435 31.0939 55.9311 32.6709L59.9249 32.4491C59.8205 30.5701 59.5069 28.7378 58.9827 26.9557L55.1453 28.0843ZM55.9417 32.7937C56.13 34.3943 56.216 35.6018 56.216 36.448H60.216C60.216 35.3742 60.11 33.9897 59.9143 32.3263L55.9417 32.7937ZM56.216 36.448C56.216 37.2977 56.1295 38.5559 55.9402 40.2591L59.9158 40.7009C60.1105 38.9481 60.216 37.5183 60.216 36.448H56.216ZM55.9315 40.3626C55.8447 41.8371 55.5842 43.3193 55.1453 44.8117L58.9827 45.9403C59.5038 44.1687 59.8193 42.3869 59.9245 40.5974L55.9315 40.3626ZM55.1453 44.8117C54.7406 46.1876 54.102 47.3773 53.2332 48.4041L56.2868 50.9879C57.53 49.5187 58.4274 47.8284 58.9827 45.9403L55.1453 44.8117ZM53.2236 48.4156C52.7038 49.0393 51.9635 49.424 50.728 49.424V53.424C52.9486 53.424 54.8962 52.6566 56.2964 50.9764L53.2236 48.4156ZM50.728 49.424H23.224V53.424H50.728V49.424ZM23.224 49.424C23.0523 49.424 23.2909 49.3824 23.5582 49.6498C23.8256 49.9171 23.784 50.1557 23.784 49.984H19.784C19.784 50.7723 19.9824 51.7309 20.7298 52.4782C21.4771 53.2256 22.4357 53.424 23.224 53.424V49.424ZM23.784 49.984V22.912H19.784V49.984H23.784ZM23.784 22.912C23.784 22.7403 23.8256 22.9789 23.5582 23.2462C23.2909 23.5136 23.0523 23.472 23.224 23.472V19.472C22.4357 19.472 21.4771 19.6704 20.7298 20.4178C19.9824 21.1651 19.784 22.1237 19.784 22.912H23.784ZM23.224 23.472H50.728V19.472H23.224V23.472ZM125.167 67.84L125.443 65.8592L125.306 65.84H125.167V67.84ZM133.375 76.768L131.435 77.2531L131.458 77.3458L131.49 77.4359L133.375 76.768ZM142.303 101.968L144.226 101.419L144.209 101.359L144.188 101.3L142.303 101.968ZM143.599 104.56L141.912 105.634L141.935 105.671L141.961 105.707L143.599 104.56ZM165.343 104.128L163.716 105.29L163.812 105.425L163.929 105.542L165.343 104.128ZM164.335 101.968L166.275 101.483L166.258 101.415L166.237 101.349L164.335 101.968ZM156.415 77.632L158.317 77.0131L158.315 77.0063L158.312 76.9995L156.415 77.632ZM153.823 71.008L151.961 71.7368L151.98 71.7868L152.002 71.8356L153.823 71.008ZM149.215 63.376L147.426 64.2704L147.512 64.4413L147.628 64.5929L149.215 63.376ZM149.215 62.08L147.801 60.6658L147.571 60.8953L147.426 61.1856L149.215 62.08ZM149.647 61.648L148.699 59.8871L148.44 60.0262L148.233 60.2338L149.647 61.648ZM155.551 57.328L157.01 58.6959L157.031 58.6739L157.051 58.6512L155.551 57.328ZM159.727 52L161.365 53.1469L161.439 53.0425L161.498 52.9297L159.727 52ZM162.751 30.256H164.751V30.2244L164.75 30.1929L162.751 30.256ZM155.839 9.80799L157.284 8.42484L157.28 8.42071L155.839 9.80799ZM135.823 21.472L136.093 19.4903L135.959 19.472H135.823V21.472ZM141.295 26.656L139.495 27.5285L139.501 27.5395L139.506 27.5504L141.295 26.656ZM142.159 29.824L140.166 29.9901L140.174 30.0865L140.191 30.1818L142.159 29.824ZM141.295 40.768L139.406 40.111L139.393 40.1481L139.382 40.1857L141.295 40.768ZM138.271 45.808L139.542 47.3519L139.558 47.3393L139.573 47.3265L138.271 45.808ZM83.279 4.192V104.56H87.279V4.192H83.279ZM83.279 104.56C83.279 105.348 83.4774 106.307 84.2248 107.054C84.9721 107.802 85.9307 108 86.719 108V104C86.5473 104 86.7859 103.958 87.0532 104.226C87.3206 104.493 87.279 104.732 87.279 104.56H83.279ZM86.719 108H104.719V104H86.719V108ZM104.719 108C105.507 108 106.466 107.802 107.213 107.054C107.961 106.307 108.159 105.348 108.159 104.56H104.159C104.159 104.732 104.117 104.493 104.385 104.226C104.652 103.958 104.891 104 104.719 104V108ZM108.159 104.56V69.28H104.159V104.56H108.159ZM108.159 69.28C108.159 69.1083 108.201 69.3469 107.933 69.6142C107.666 69.8816 107.427 69.84 107.599 69.84V65.84C106.811 65.84 105.852 66.0384 105.105 66.7858C104.357 67.5331 104.159 68.4917 104.159 69.28H108.159ZM107.599 69.84H125.167V65.84H107.599V69.84ZM124.891 69.8208C126.511 70.0469 127.799 70.7223 128.843 71.8576C129.916 73.0254 130.815 74.7746 131.435 77.2531L135.315 76.2829C134.591 73.3854 133.45 70.9586 131.787 69.1504C130.095 67.3097 127.951 66.2091 125.443 65.8592L124.891 69.8208ZM131.49 77.4359L140.418 102.636L144.188 101.3L135.26 76.1001L131.49 77.4359ZM140.38 102.517C140.651 103.466 141.204 104.522 141.912 105.634L145.286 103.486C144.65 102.486 144.339 101.814 144.226 101.419L140.38 102.517ZM141.961 105.707C142.362 106.28 142.82 106.817 143.352 107.225C143.887 107.637 144.605 108 145.471 108V104C145.761 104 145.879 104.123 145.79 104.055C145.698 103.983 145.508 103.8 145.237 103.413L141.961 105.707ZM145.471 108H165.343V104H145.471V108ZM165.343 108C165.859 108 166.619 107.9 167.271 107.356C167.993 106.755 168.207 105.934 168.207 105.28H164.207C164.207 105.106 164.277 104.645 164.711 104.284C165.075 103.98 165.403 104 165.343 104V108ZM168.207 105.28C168.207 104.779 168.034 104.391 167.942 104.206C167.833 103.988 167.704 103.798 167.591 103.648C167.365 103.346 167.073 103.029 166.757 102.714L163.929 105.542C164.054 105.667 164.155 105.774 164.234 105.862C164.315 105.952 164.365 106.013 164.391 106.048C164.422 106.09 164.401 106.068 164.364 105.994C164.344 105.955 164.31 105.88 164.278 105.774C164.247 105.671 164.207 105.5 164.207 105.28H168.207ZM166.97 102.966C166.63 102.489 166.404 101.997 166.275 101.483L162.395 102.453C162.65 103.475 163.096 104.423 163.716 105.29L166.97 102.966ZM166.237 101.349L158.317 77.0131L154.513 78.2509L162.433 102.587L166.237 101.349ZM158.312 76.9995C157.523 74.6323 156.634 72.3589 155.644 70.1804L152.002 71.8356C152.932 73.8811 153.771 76.0237 154.518 78.2645L158.312 76.9995ZM155.685 70.2792C154.727 67.8298 153.071 65.1181 150.802 62.1591L147.628 64.5929C149.775 67.3939 151.191 69.7702 151.961 71.7368L155.685 70.2792ZM151.004 62.4816C151.03 62.5342 151.071 62.6465 151.071 62.8H147.071C147.071 63.3375 147.208 63.8338 147.426 64.2704L151.004 62.4816ZM151.071 62.8C151.071 62.7653 151.074 62.7668 151.068 62.7962C151.062 62.8266 151.046 62.891 151.004 62.9744L147.426 61.1856C147.152 61.7335 147.071 62.3027 147.071 62.8H151.071ZM150.629 63.4942C150.63 63.4938 150.63 63.4935 150.63 63.4931C150.631 63.4927 150.631 63.4923 150.631 63.492C150.632 63.4916 150.632 63.4912 150.633 63.4908C150.633 63.4905 150.633 63.4901 150.634 63.4897C150.634 63.4893 150.634 63.489 150.635 63.4886C150.635 63.4882 150.636 63.4879 150.636 63.4875C150.636 63.4871 150.637 63.4867 150.637 63.4864C150.637 63.486 150.638 63.4856 150.638 63.4852C150.639 63.4849 150.639 63.4845 150.639 63.4841C150.64 63.4838 150.64 63.4834 150.64 63.483C150.641 63.4826 150.641 63.4823 150.642 63.4819C150.642 63.4815 150.642 63.4812 150.643 63.4808C150.643 63.4804 150.643 63.4801 150.644 63.4797C150.644 63.4793 150.644 63.4789 150.645 63.4786C150.645 63.4782 150.646 63.4778 150.646 63.4775C150.646 63.4771 150.647 63.4767 150.647 63.4764C150.647 63.476 150.648 63.4756 150.648 63.4752C150.649 63.4749 150.649 63.4745 150.649 63.4741C150.65 63.4738 150.65 63.4734 150.65 63.473C150.651 63.4727 150.651 63.4723 150.651 63.4719C150.652 63.4716 150.652 63.4712 150.653 63.4708C150.653 63.4705 150.653 63.4701 150.654 63.4697C150.654 63.4694 150.654 63.469 150.655 63.4686C150.655 63.4683 150.656 63.4679 150.656 63.4675C150.656 63.4672 150.657 63.4668 150.657 63.4664C150.657 63.4661 150.658 63.4657 150.658 63.4653C150.658 63.465 150.659 63.4646 150.659 63.4642C150.66 63.4639 150.66 63.4635 150.66 63.4631C150.661 63.4628 150.661 63.4624 150.661 63.462C150.662 63.4617 150.662 63.4613 150.662 63.461C150.663 63.4606 150.663 63.4602 150.664 63.4599C150.664 63.4595 150.664 63.4591 150.665 63.4588C150.665 63.4584 150.665 63.458 150.666 63.4577C150.666 63.4573 150.666 63.457 150.667 63.4566C150.667 63.4562 150.668 63.4559 150.668 63.4555C150.668 63.4551 150.669 63.4548 150.669 63.4544C150.669 63.4541 150.67 63.4537 150.67 63.4533C150.67 63.453 150.671 63.4526 150.671 63.4523C150.672 63.4519 150.672 63.4515 150.672 63.4512C150.673 63.4508 150.673 63.4505 150.673 63.4501C150.674 63.4497 150.674 63.4494 150.674 63.449C150.675 63.4487 150.675 63.4483 150.675 63.4479C150.676 63.4476 150.676 63.4472 150.677 63.4469C150.677 63.4465 150.677 63.4461 150.678 63.4458C150.678 63.4454 150.678 63.4451 150.679 63.4447C150.679 63.4443 150.679 63.444 150.68 63.4436C150.68 63.4433 150.681 63.4429 150.681 63.4426C150.681 63.4422 150.682 63.4418 150.682 63.4415C150.682 63.4411 150.683 63.4408 150.683 63.4404C150.683 63.44 150.684 63.4397 150.684 63.4393C150.684 63.439 150.685 63.4386 150.685 63.4383C150.686 63.4379 150.686 63.4376 150.686 63.4372C150.687 63.4368 150.687 63.4365 150.687 63.4361C150.688 63.4358 150.688 63.4354 150.688 63.4351C150.689 63.4347 150.689 63.4344 150.689 63.434C150.69 63.4336 150.69 63.4333 150.69 63.4329C150.691 63.4326 150.691 63.4322 150.692 63.4319C150.692 63.4315 150.692 63.4312 150.693 63.4308C150.693 63.4305 150.693 63.4301 150.694 63.4297C150.694 63.4294 150.694 63.429 150.695 63.4287C150.695 63.4283 150.695 63.428 150.696 63.4276C150.696 63.4273 150.697 63.4269 150.697 63.4266C150.697 63.4262 150.698 63.4259 150.698 63.4255C150.698 63.4252 150.699 63.4248 150.699 63.4245C150.699 63.4241 150.7 63.4238 150.7 63.4234C150.7 63.4231 150.701 63.4227 150.701 63.4224C150.701 63.422 150.702 63.4217 150.702 63.4213C150.702 63.421 150.703 63.4206 150.703 63.4203C150.704 63.4199 150.704 63.4196 150.704 63.4192C150.705 63.4189 150.705 63.4185 150.705 63.4182C150.706 63.4178 150.706 63.4175 150.706 63.4171C150.707 63.4168 150.707 63.4164 150.707 63.4161C150.708 63.4157 150.708 63.4154 150.708 63.415C150.709 63.4147 150.709 63.4143 150.709 63.414C150.71 63.4136 150.71 63.4133 150.711 63.4129C150.711 63.4126 150.711 63.4122 150.712 63.4119C150.712 63.4115 150.712 63.4112 150.713 63.4108C150.713 63.4105 150.713 63.4102 150.714 63.4098C150.714 63.4095 150.714 63.4091 150.715 63.4088C150.715 63.4084 150.715 63.4081 150.716 63.4077C150.716 63.4074 150.716 63.407 150.717 63.4067C150.717 63.4063 150.717 63.406 150.718 63.4057C150.718 63.4053 150.718 63.405 150.719 63.4046C150.719 63.4043 150.719 63.4039 150.72 63.4036C150.72 63.4032 150.721 63.4029 150.721 63.4026C150.721 63.4022 150.722 63.4019 150.722 63.4015C150.722 63.4012 150.723 63.4008 150.723 63.4005C150.723 63.4002 150.724 63.3998 150.724 63.3995C150.724 63.3991 150.725 63.3988 150.725 63.3984C150.725 63.3981 150.726 63.3978 150.726 63.3974C150.726 63.3971 150.727 63.3967 150.727 63.3964C150.727 63.396 150.728 63.3957 150.728 63.3954C150.728 63.395 150.729 63.3947 150.729 63.3943C150.729 63.394 150.73 63.3937 150.73 63.3933C150.73 63.393 150.731 63.3926 150.731 63.3923C150.731 63.392 150.732 63.3916 150.732 63.3913C150.732 63.3909 150.733 63.3906 150.733 63.3903C150.734 63.3899 150.734 63.3896 150.734 63.3892C150.735 63.3889 150.735 63.3886 150.735 63.3882C150.736 63.3879 150.736 63.3875 150.736 63.3872C150.737 63.3869 150.737 63.3865 150.737 63.3862C150.738 63.3859 150.738 63.3855 150.738 63.3852C150.739 63.3848 150.739 63.3845 150.739 63.3842C150.74 63.3838 150.74 63.3835 150.74 63.3832C150.741 63.3828 150.741 63.3825 150.741 63.3821C150.742 63.3818 150.742 63.3815 150.742 63.3811C150.743 63.3808 150.743 63.3805 150.743 63.3801C150.744 63.3798 150.744 63.3795 150.744 63.3791C150.745 63.3788 150.745 63.3784 150.745 63.3781C150.746 63.3778 150.746 63.3774 150.746 63.3771C150.747 63.3768 150.747 63.3764 150.747 63.3761C150.748 63.3758 150.748 63.3754 150.748 63.3751C150.749 63.3748 150.749 63.3744 150.749 63.3741C150.75 63.3738 150.75 63.3734 150.75 63.3731C150.751 63.3728 150.751 63.3724 150.751 63.3721C150.752 63.3718 150.752 63.3714 150.752 63.3711C150.753 63.3708 150.753 63.3704 150.753 63.3701C150.754 63.3698 150.754 63.3694 150.754 63.3691C150.755 63.3688 150.755 63.3684 150.755 63.3681C150.756 63.3678 150.756 63.3675 150.756 63.3671C150.757 63.3668 150.757 63.3665 150.757 63.3661C150.758 63.3658 150.758 63.3655 150.758 63.3651C150.759 63.3648 150.759 63.3645 150.759 63.3641C150.76 63.3638 150.76 63.3635 150.76 63.3632C150.761 63.3628 150.761 63.3625 150.761 63.3622C150.762 63.3618 150.762 63.3615 150.762 63.3612C150.763 63.3609 150.763 63.3605 150.763 63.3602C150.764 63.3599 150.764 63.3595 150.764 63.3592C150.765 63.3589 150.765 63.3586 150.765 63.3582C150.766 63.3579 150.766 63.3576 150.766 63.3572C150.767 63.3569 150.767 63.3566 150.767 63.3563C150.767 63.3559 150.768 63.3556 150.768 63.3553C150.768 63.355 150.769 63.3546 150.769 63.3543C150.769 63.354 150.77 63.3537 150.77 63.3533C150.77 63.353 150.771 63.3527 150.771 63.3523C150.771 63.352 150.772 63.3517 150.772 63.3514C150.772 63.351 150.773 63.3507 150.773 63.3504C150.773 63.3501 150.774 63.3497 150.774 63.3494C150.774 63.3491 150.775 63.3488 150.775 63.3485C150.775 63.3481 150.776 63.3478 150.776 63.3475C150.776 63.3472 150.777 63.3468 150.777 63.3465C150.777 63.3462 150.778 63.3459 150.778 63.3455C150.778 63.3452 150.779 63.3449 150.779 63.3446C150.779 63.3442 150.78 63.3439 150.78 63.3436C150.78 63.3433 150.78 63.343 150.781 63.3426C150.781 63.3423 150.781 63.342 150.782 63.3417C150.782 63.3413 150.782 63.341 150.783 63.3407C150.783 63.3404 150.783 63.3401 150.784 63.3397C150.784 63.3394 150.784 63.3391 150.785 63.3388C150.785 63.3385 150.785 63.3381 150.786 63.3378C150.786 63.3375 150.786 63.3372 150.787 63.3369C150.787 63.3365 150.787 63.3362 150.788 63.3359C150.788 63.3356 150.788 63.3353 150.788 63.3349C150.789 63.3346 150.789 63.3343 150.789 63.334C150.79 63.3337 150.79 63.3334 150.79 63.333C150.791 63.3327 150.791 63.3324 150.791 63.3321C150.792 63.3318 150.792 63.3314 150.792 63.3311C150.793 63.3308 150.793 63.3305 150.793 63.3302C150.794 63.3299 150.794 63.3295 150.794 63.3292C150.795 63.3289 150.795 63.3286 150.795 63.3283C150.795 63.328 150.796 63.3276 150.796 63.3273C150.796 63.327 150.797 63.3267 150.797 63.3264C150.797 63.3261 150.798 63.3257 150.798 63.3254C150.798 63.3251 150.799 63.3248 150.799 63.3245C150.799 63.3242 150.8 63.3239 150.8 63.3235C150.8 63.3232 150.801 63.3229 150.801 63.3226C150.801 63.3223 150.801 63.322 150.802 63.3217C150.802 63.3213 150.802 63.321 150.803 63.3207C150.803 63.3204 150.803 63.3201 150.804 63.3198C150.804 63.3195 150.804 63.3191 150.805 63.3188C150.805 63.3185 150.805 63.3182 150.806 63.3179C150.806 63.3176 150.806 63.3173 150.806 63.317C150.807 63.3167 150.807 63.3163 150.807 63.316C150.808 63.3157 150.808 63.3154 150.808 63.3151C150.809 63.3148 150.809 63.3145 150.809 63.3142C150.81 63.3138 150.81 63.3135 150.81 63.3132C150.811 63.3129 150.811 63.3126 150.811 63.3123C150.811 63.312 150.812 63.3117 150.812 63.3114C150.812 63.3111 150.813 63.3107 150.813 63.3104C150.813 63.3101 150.814 63.3098 150.814 63.3095C150.814 63.3092 150.815 63.3089 150.815 63.3086C150.815 63.3083 150.815 63.308 150.816 63.3077C150.816 63.3073 150.816 63.307 150.817 63.3067C150.817 63.3064 150.817 63.3061 150.818 63.3058C150.818 63.3055 150.818 63.3052 150.819 63.3049C150.819 63.3046 150.819 63.3043 150.819 63.304C150.82 63.3037 150.82 63.3034 150.82 63.303C150.821 63.3027 150.821 63.3024 150.821 63.3021C150.822 63.3018 150.822 63.3015 150.822 63.3012C150.823 63.3009 150.823 63.3006 150.823 63.3003C150.823 63.3 150.824 63.2997 150.824 63.2994C150.824 63.2991 150.825 63.2988 150.825 63.2985C150.825 63.2982 150.826 63.2979 150.826 63.2975C150.826 63.2972 150.826 63.2969 150.827 63.2966C150.827 63.2963 150.827 63.296 150.828 63.2957C150.828 63.2954 150.828 63.2951 150.829 63.2948C150.829 63.2945 150.829 63.2942 150.83 63.2939C150.83 63.2936 150.83 63.2933 150.83 63.293C150.831 63.2927 150.831 63.2924 150.831 63.2921C150.832 63.2918 150.832 63.2915 150.832 63.2912C150.833 63.2909 150.833 63.2906 150.833 63.2903C150.833 63.29 150.834 63.2897 150.834 63.2894C150.834 63.2891 150.835 63.2888 150.835 63.2885C150.835 63.2882 150.836 63.2879 150.836 63.2876C150.836 63.2873 150.836 63.287 150.837 63.2867C150.837 63.2864 150.837 63.2861 150.838 63.2858C150.838 63.2855 150.838 63.2852 150.839 63.2849C150.839 63.2846 150.839 63.2843 150.839 63.284C150.84 63.2837 150.84 63.2834 150.84 63.2831C150.841 63.2828 150.841 63.2825 150.841 63.2822C150.842 63.2819 150.842 63.2816 150.842 63.2813C150.842 63.281 150.843 63.2807 150.843 63.2804C150.843 63.2801 150.844 63.2798 150.844 63.2795C150.844 63.2792 150.845 63.2789 150.845 63.2786C150.845 63.2783 150.845 63.278 150.846 63.2777C150.846 63.2774 150.846 63.2771 150.847 63.2768C150.847 63.2765 150.847 63.2762 150.847 63.276C150.848 63.2757 150.848 63.2754 150.848 63.2751C150.849 63.2748 150.849 63.2745 150.849 63.2742C150.85 63.2739 150.85 63.2736 150.85 63.2733C150.85 63.273 150.851 63.2727 150.851 63.2724C150.851 63.2721 150.852 63.2718 150.852 63.2715C150.852 63.2712 150.852 63.2709 150.853 63.2707C150.853 63.2704 150.853 63.2701 150.854 63.2698C150.854 63.2695 150.854 63.2692 150.855 63.2689C150.855 63.2686 150.855 63.2683 150.855 63.268C150.856 63.2677 150.856 63.2674 150.856 63.2671C150.857 63.2669 150.857 63.2666 150.857 63.2663C150.857 63.266 150.858 63.2657 150.858 63.2654C150.858 63.2651 150.859 63.2648 150.859 63.2645C150.859 63.2642 150.859 63.2639 150.86 63.2636C150.86 63.2634 150.86 63.2631 150.861 63.2628C150.861 63.2625 150.861 63.2622 150.862 63.2619C150.862 63.2616 150.862 63.2613 150.862 63.261C150.863 63.2608 150.863 63.2605 150.863 63.2602C150.864 63.2599 150.864 63.2596 150.864 63.2593C150.864 63.259 150.865 63.2587 150.865 63.2584C150.865 63.2582 150.866 63.2579 150.866 63.2576C150.866 63.2573 150.866 63.257 150.867 63.2567C150.867 63.2564 150.867 63.2561 150.868 63.2559C150.868 63.2556 150.868 63.2553 150.868 63.255C150.869 63.2547 150.869 63.2544 150.869 63.2541C150.87 63.2538 150.87 63.2536 150.87 63.2533C150.87 63.253 150.871 63.2527 150.871 63.2524C150.871 63.2521 150.872 63.2518 150.872 63.2516C150.872 63.2513 150.872 63.251 150.873 63.2507C150.873 63.2504 150.873 63.2501 150.874 63.2498C150.874 63.2496 150.874 63.2493 150.874 63.249C150.875 63.2487 150.875 63.2484 150.875 63.2481C150.876 63.2479 150.876 63.2476 150.876 63.2473C150.876 63.247 150.877 63.2467 150.877 63.2464C150.877 63.2462 150.878 63.2459 150.878 63.2456C150.878 63.2453 150.878 63.245 150.879 63.2447C150.879 63.2445 150.879 63.2442 150.88 63.2439C150.88 63.2436 150.88 63.2433 150.88 63.2431C150.881 63.2428 150.881 63.2425 150.881 63.2422C150.881 63.2419 150.882 63.2416 150.882 63.2414C150.882 63.2411 150.883 63.2408 150.883 63.2405C150.883 63.2402 150.883 63.24 150.884 63.2397C150.884 63.2394 150.884 63.2391 150.885 63.2388C150.885 63.2386 150.885 63.2383 150.885 63.238C150.886 63.2377 150.886 63.2374 150.886 63.2372C150.887 63.2369 150.887 63.2366 150.887 63.2363C150.887 63.2361 150.888 63.2358 150.888 63.2355C150.888 63.2352 150.888 63.2349 150.889 63.2347C150.889 63.2344 150.889 63.2341 150.89 63.2338C150.89 63.2336 150.89 63.2333 150.89 63.233C150.891 63.2327 150.891 63.2324 150.891 63.2322C150.892 63.2319 150.892 63.2316 150.892 63.2313C150.892 63.2311 150.893 63.2308 150.893 63.2305C150.893 63.2302 150.893 63.23 150.894 63.2297C150.894 63.2294 150.894 63.2291 150.895 63.2289C150.895 63.2286 150.895 63.2283 150.895 63.228C150.896 63.2278 150.896 63.2275 150.896 63.2272C150.897 63.2269 150.897 63.2267 150.897 63.2264C150.897 63.2261 150.898 63.2258 150.898 63.2256C150.898 63.2253 150.898 63.225 150.899 63.2247C150.899 63.2245 150.899 63.2242 150.9 63.2239C150.9 63.2236 150.9 63.2234 150.9 63.2231C150.901 63.2228 150.901 63.2226 150.901 63.2223C150.901 63.222 150.902 63.2217 150.902 63.2215C150.902 63.2212 150.903 63.2209 150.903 63.2206C150.903 63.2204 150.903 63.2201 150.904 63.2198C150.904 63.2196 150.904 63.2193 150.904 63.219C150.905 63.2187 150.905 63.2185 150.905 63.2182C150.905 63.2179 150.906 63.2177 150.906 63.2174C150.906 63.2171 150.907 63.2169 150.907 63.2166C150.907 63.2163 150.907 63.216 150.908 63.2158C150.908 63.2155 150.908 63.2152 150.908 63.215C150.909 63.2147 150.909 63.2144 150.909 63.2142C150.91 63.2139 150.91 63.2136 150.91 63.2134C150.91 63.2131 150.911 63.2128 150.911 63.2125C150.911 63.2123 150.911 63.212 150.912 63.2117C150.912 63.2115 150.912 63.2112 150.912 63.2109C150.913 63.2107 150.913 63.2104 150.913 63.2101C150.914 63.2099 150.914 63.2096 150.914 63.2093C150.914 63.2091 150.915 63.2088 150.915 63.2085C150.915 63.2083 150.915 63.208 150.916 63.2077C150.916 63.2075 150.916 63.2072 150.916 63.2069C150.917 63.2067 150.917 63.2064 150.917 63.2061C150.918 63.2059 150.918 63.2056 150.918 63.2054C150.918 63.2051 150.919 63.2048 150.919 63.2046C150.919 63.2043 150.919 63.204 150.92 63.2038C150.92 63.2035 150.92 63.2032 150.92 63.203C150.921 63.2027 150.921 63.2024 150.921 63.2022C150.922 63.2019 150.922 63.2017 150.922 63.2014C150.922 63.2011 150.923 63.2009 150.923 63.2006C150.923 63.2003 150.923 63.2001 150.924 63.1998C150.924 63.1996 150.924 63.1993 150.924 63.199C150.925 63.1988 150.925 63.1985 150.925 63.1983C150.925 63.198 150.926 63.1977 150.926 63.1975C150.926 63.1972 150.926 63.1969 150.927 63.1967C150.927 63.1964 150.927 63.1962 150.928 63.1959C150.928 63.1956 150.928 63.1954 150.928 63.1951C150.929 63.1949 150.929 63.1946 150.929 63.1943C150.929 63.1941 150.93 63.1938 150.93 63.1936C150.93 63.1933 150.93 63.193 150.931 63.1928C150.931 63.1925 150.931 63.1923 150.931 63.192C150.932 63.1918 150.932 63.1915 150.932 63.1912C150.932 63.191 150.933 63.1907 150.933 63.1905C150.933 63.1902 150.933 63.1899 150.934 63.1897C150.934 63.1894 150.934 63.1892 150.935 63.1889C150.935 63.1887 150.935 63.1884 150.935 63.1881C150.936 63.1879 150.936 63.1876 150.936 63.1874C150.936 63.1871 150.937 63.1869 150.937 63.1866C150.937 63.1864 150.937 63.1861 150.938 63.1858C150.938 63.1856 150.938 63.1853 150.938 63.1851C150.939 63.1848 150.939 63.1846 150.939 63.1843C150.939 63.1841 150.94 63.1838 150.94 63.1835C150.94 63.1833 150.94 63.183 150.941 63.1828C150.941 63.1825 150.941 63.1823 150.941 63.182C150.942 63.1818 150.942 63.1815 150.942 63.1813C150.942 63.181 150.943 63.1808 150.943 63.1805C150.943 63.1802 150.943 63.18 150.944 63.1797C150.944 63.1795 150.944 63.1792 150.944 63.179C150.945 63.1787 150.945 63.1785 150.945 63.1782C150.945 63.178 150.946 63.1777 150.946 63.1775C150.946 63.1772 150.946 63.177 150.947 63.1767C150.947 63.1765 150.947 63.1762 150.947 63.176C150.948 63.1757 150.948 63.1755 150.948 63.1752C150.948 63.175 150.949 63.1747 150.949 63.1745C150.949 63.1742 150.949 63.174 150.95 63.1737C150.95 63.1735 150.95 63.1732 150.95 63.173C150.951 63.1727 150.951 63.1725 150.951 63.1722C150.951 63.172 150.952 63.1717 150.952 63.1715C150.952 63.1712 150.952 63.171 150.953 63.1707C150.953 63.1705 150.953 63.1702 150.953 63.17C150.954 63.1697 150.954 63.1695 150.954 63.1692C150.954 63.169 150.955 63.1687 150.955 63.1685C150.955 63.1682 150.955 63.168 150.956 63.1678C150.956 63.1675 150.956 63.1673 150.956 63.167C150.957 63.1668 150.957 63.1665 150.957 63.1663C150.957 63.166 150.958 63.1658 150.958 63.1655C150.958 63.1653 150.958 63.165 150.959 63.1648C150.959 63.1646 150.959 63.1643 150.959 63.1641C150.96 63.1638 150.96 63.1636 150.96 63.1633C150.96 63.1631 150.961 63.1628 150.961 63.1626C150.961 63.1624 150.961 63.1621 150.962 63.1619C150.962 63.1616 150.962 63.1614 150.962 63.1611C150.963 63.1609 150.963 63.1606 150.963 63.1604C150.963 63.1602 150.964 63.1599 150.964 63.1597C150.964 63.1594 150.964 63.1592 150.964 63.1589C150.965 63.1587 150.965 63.1585 150.965 63.1582C150.965 63.158 150.966 63.1577 150.966 63.1575C150.966 63.1573 150.966 63.157 150.967 63.1568C150.967 63.1565 150.967 63.1563 150.967 63.156C150.968 63.1558 150.968 63.1556 150.968 63.1553C150.968 63.1551 150.969 63.1548 150.969 63.1546C150.969 63.1544 150.969 63.1541 150.97 63.1539C150.97 63.1536 150.97 63.1534 150.97 63.1532C150.971 63.1529 150.971 63.1527 150.971 63.1524C150.971 63.1522 150.971 63.152 150.972 63.1517C150.972 63.1515 150.972 63.1512 150.972 63.151C150.973 63.1508 150.973 63.1505 150.973 63.1503C150.973 63.1501 150.974 63.1498 150.974 63.1496C150.974 63.1493 150.974 63.1491 150.975 63.1489C150.975 63.1486 150.975 63.1484 150.975 63.1482C150.976 63.1479 150.976 63.1477 150.976 63.1474C150.976 63.1472 150.976 63.147 150.977 63.1467C150.977 63.1465 150.977 63.1463 150.977 63.146C150.978 63.1458 150.978 63.1456 150.978 63.1453C150.978 63.1451 150.979 63.1449 150.979 63.1446C150.979 63.1444 150.979 63.1441 150.98 63.1439C150.98 63.1437 150.98 63.1434 150.98 63.1432C150.98 63.143 150.981 63.1427 150.981 63.1425C150.981 63.1423 150.981 63.142 150.982 63.1418C150.982 63.1416 150.982 63.1413 150.982 63.1411C150.983 63.1409 150.983 63.1406 150.983 63.1404C150.983 63.1402 150.983 63.1399 150.984 63.1397C150.984 63.1395 150.984 63.1392 150.984 63.139C150.985 63.1388 150.985 63.1385 150.985 63.1383C150.985 63.1381 150.986 63.1379 150.986 63.1376C150.986 63.1374 150.986 63.1372 150.987 63.1369C150.987 63.1367 150.987 63.1365 150.987 63.1362C150.987 63.136 150.988 63.1358 150.988 63.1355C150.988 63.1353 150.988 63.1351 150.989 63.1349C150.989 63.1346 150.989 63.1344 150.989 63.1342C150.989 63.1339 150.99 63.1337 150.99 63.1335C150.99 63.1332 150.99 63.133 150.991 63.1328C150.991 63.1326 150.991 63.1323 150.991 63.1321C150.992 63.1319 150.992 63.1316 150.992 63.1314C150.992 63.1312 150.992 63.131 150.993 63.1307C150.993 63.1305 150.993 63.1303 150.993 63.13C150.994 63.1298 150.994 63.1296 150.994 63.1294C150.994 63.1291 150.995 63.1289 150.995 63.1287C150.995 63.1285 150.995 63.1282 150.995 63.128C150.996 63.1278 150.996 63.1276 150.996 63.1273C150.996 63.1271 150.997 63.1269 150.997 63.1267C150.997 63.1264 150.997 63.1262 150.997 63.126C150.998 63.1258 150.998 63.1255 150.998 63.1253C150.998 63.1251 150.999 63.1249 150.999 63.1246C150.999 63.1244 150.999 63.1242 150.999 63.124C151 63.1237 151 63.1235 151 63.1233C151 63.1231 151.001 63.1228 151.001 63.1226C151.001 63.1224 151.001 63.1222 151.001 63.1219C151.002 63.1217 151.002 63.1215 151.002 63.1213C151.002 63.1211 151.003 63.1208 151.003 63.1206C151.003 63.1204 151.003 63.1202 151.003 63.1199C151.004 63.1197 151.004 63.1195 151.004 63.1193C151.004 63.1191 151.005 63.1188 151.005 63.1186C151.005 63.1184 151.005 63.1182 151.005 63.1179C151.006 63.1177 151.006 63.1175 151.006 63.1173C151.006 63.1171 151.007 63.1168 151.007 63.1166C151.007 63.1164 151.007 63.1162 151.007 63.116C151.008 63.1157 151.008 63.1155 151.008 63.1153C151.008 63.1151 151.009 63.1149 151.009 63.1146C151.009 63.1144 151.009 63.1142 151.009 63.114C151.01 63.1138 151.01 63.1136 151.01 63.1133C151.01 63.1131 151.011 63.1129 151.011 63.1127C151.011 63.1125 151.011 63.1122 151.011 63.112C151.012 63.1118 151.012 63.1116 151.012 63.1114C151.012 63.1112 151.012 63.1109 151.013 63.1107C151.013 63.1105 151.013 63.1103 151.013 63.1101C151.014 63.1099 151.014 63.1096 151.014 63.1094C151.014 63.1092 151.014 63.109 151.015 63.1088C151.015 63.1086 151.015 63.1083 151.015 63.1081C151.016 63.1079 151.016 63.1077 151.016 63.1075C151.016 63.1073 151.016 63.1071 151.017 63.1068C151.017 63.1066 151.017 63.1064 151.017 63.1062C151.017 63.106 151.018 63.1058 151.018 63.1056C151.018 63.1053 151.018 63.1051 151.019 63.1049C151.019 63.1047 151.019 63.1045 151.019 63.1043C151.019 63.1041 151.02 63.1039 151.02 63.1036C151.02 63.1034 151.02 63.1032 151.02 63.103C151.021 63.1028 151.021 63.1026 151.021 63.1024C151.021 63.1022 151.021 63.1019 151.022 63.1017C151.022 63.1015 151.022 63.1013 151.022 63.1011C151.023 63.1009 151.023 63.1007 151.023 63.1005C151.023 63.1002 151.023 63.1 151.024 63.0998C151.024 63.0996 151.024 63.0994 151.024 63.0992C151.024 63.099 151.025 63.0988 151.025 63.0986C151.025 63.0984 151.025 63.0981 151.025 63.0979C151.026 63.0977 151.026 63.0975 151.026 63.0973C151.026 63.0971 151.027 63.0969 151.027 63.0967C151.027 63.0965 151.027 63.0963 151.027 63.0961C151.028 63.0958 151.028 63.0956 151.028 63.0954C151.028 63.0952 151.028 63.095 151.029 63.0948C151.029 63.0946 151.029 63.0944 151.029 63.0942C151.029 63.094 151.03 63.0938 151.03 63.0936C151.03 63.0934 151.03 63.0932 151.03 63.0929C151.031 63.0927 151.031 63.0925 151.031 63.0923C151.031 63.0921 151.032 63.0919 151.032 63.0917C151.032 63.0915 151.032 63.0913 151.032 63.0911C151.033 63.0909 151.033 63.0907 151.033 63.0905C151.033 63.0903 151.033 63.0901 151.034 63.0899C151.034 63.0897 151.034 63.0895 151.034 63.0892C151.034 63.089 151.035 63.0888 151.035 63.0886C151.035 63.0884 151.035 63.0882 151.035 63.088C151.036 63.0878 151.036 63.0876 151.036 63.0874C151.036 63.0872 151.036 63.087 151.037 63.0868C151.037 63.0866 151.037 63.0864 151.037 63.0862C151.037 63.086 151.038 63.0858 151.038 63.0856C151.038 63.0854 151.038 63.0852 151.038 63.085C151.039 63.0848 151.039 63.0846 151.039 63.0844C151.039 63.0842 151.039 63.084 151.04 63.0838C151.04 63.0836 151.04 63.0834 151.04 63.0832C151.04 63.083 151.041 63.0828 151.041 63.0826C151.041 63.0824 151.041 63.0822 151.041 63.082C151.042 63.0818 151.042 63.0816 151.042 63.0814C151.042 63.0812 151.042 63.081 151.043 63.0808C151.043 63.0806 151.043 63.0804 151.043 63.0802C151.043 63.08 151.044 63.0798 151.044 63.0796C151.044 63.0794 151.044 63.0792 151.044 63.079C151.045 63.0788 151.045 63.0786 151.045 63.0784C151.045 63.0782 151.045 63.078 151.046 63.0778C151.046 63.0776 151.046 63.0774 151.046 63.0772C151.046 63.077 151.047 63.0768 151.047 63.0766C151.047 63.0764 151.047 63.0762 151.047 63.076C151.048 63.0758 151.048 63.0756 151.048 63.0754C151.048 63.0752 151.048 63.075 151.049 63.0749C151.049 63.0747 151.049 63.0745 151.049 63.0743C151.049 63.0741 151.05 63.0739 151.05 63.0737C151.05 63.0735 151.05 63.0733 151.05 63.0731C151.051 63.0729 151.051 63.0727 151.051 63.0725C151.051 63.0723 151.051 63.0721 151.051 63.0719C151.052 63.0717 151.052 63.0715 151.052 63.0714C151.052 63.0712 151.052 63.071 151.053 63.0708C151.053 63.0706 151.053 63.0704 151.053 63.0702C151.053 63.07 151.054 63.0698 151.054 63.0696C151.054 63.0694 151.054 63.0692 151.054 63.069C151.055 63.0688 151.055 63.0687 151.055 63.0685C151.055 63.0683 151.055 63.0681 151.056 63.0679C151.056 63.0677 151.056 63.0675 151.056 63.0673C151.056 63.0671 151.056 63.0669 151.057 63.0667C151.057 63.0666 151.057 63.0664 151.057 63.0662C151.057 63.066 151.058 63.0658 151.058 63.0656C151.058 63.0654 151.058 63.0652 151.058 63.065C151.059 63.0648 151.059 63.0647 151.059 63.0645C151.059 63.0643 151.059 63.0641 151.06 63.0639C151.06 63.0637 151.06 63.0635 151.06 63.0633C151.06 63.0631 151.06 63.063 151.061 63.0628C151.061 63.0626 151.061 63.0624 151.061 63.0622L148.233 60.2338C148.233 60.234 148.232 60.2342 148.232 60.2343C148.232 60.2345 148.232 60.2347 148.232 60.2349C148.231 60.2351 148.231 60.2353 148.231 60.2355C148.231 60.2357 148.231 60.2359 148.231 60.236C148.23 60.2362 148.23 60.2364 148.23 60.2366C148.23 60.2368 148.23 60.237 148.229 60.2372C148.229 60.2374 148.229 60.2376 148.229 60.2377C148.229 60.2379 148.228 60.2381 148.228 60.2383C148.228 60.2385 148.228 60.2387 148.228 60.2389C148.227 60.2391 148.227 60.2393 148.227 60.2395C148.227 60.2397 148.227 60.2398 148.227 60.24C148.226 60.2402 148.226 60.2404 148.226 60.2406C148.226 60.2408 148.226 60.241 148.225 60.2412C148.225 60.2414 148.225 60.2416 148.225 60.2418C148.225 60.242 148.224 60.2422 148.224 60.2423C148.224 60.2425 148.224 60.2427 148.224 60.2429C148.223 60.2431 148.223 60.2433 148.223 60.2435C148.223 60.2437 148.223 60.2439 148.222 60.2441C148.222 60.2443 148.222 60.2445 148.222 60.2447C148.222 60.2449 148.222 60.2451 148.221 60.2453C148.221 60.2454 148.221 60.2456 148.221 60.2458C148.221 60.246 148.22 60.2462 148.22 60.2464C148.22 60.2466 148.22 60.2468 148.22 60.247C148.219 60.2472 148.219 60.2474 148.219 60.2476C148.219 60.2478 148.219 60.248 148.218 60.2482C148.218 60.2484 148.218 60.2486 148.218 60.2488C148.218 60.249 148.217 60.2492 148.217 60.2494C148.217 60.2496 148.217 60.2498 148.217 60.25C148.216 60.2502 148.216 60.2504 148.216 60.2506C148.216 60.2508 148.216 60.251 148.215 60.2512C148.215 60.2514 148.215 60.2515 148.215 60.2517C148.215 60.2519 148.214 60.2521 148.214 60.2523C148.214 60.2525 148.214 60.2527 148.214 60.2529C148.213 60.2531 148.213 60.2533 148.213 60.2535C148.213 60.2537 148.213 60.2539 148.212 60.2541C148.212 60.2543 148.212 60.2545 148.212 60.2547C148.212 60.2549 148.211 60.2551 148.211 60.2553C148.211 60.2555 148.211 60.2557 148.211 60.256C148.21 60.2562 148.21 60.2564 148.21 60.2566C148.21 60.2568 148.21 60.257 148.209 60.2572C148.209 60.2574 148.209 60.2576 148.209 60.2578C148.209 60.258 148.208 60.2582 148.208 60.2584C148.208 60.2586 148.208 60.2588 148.208 60.259C148.207 60.2592 148.207 60.2594 148.207 60.2596C148.207 60.2598 148.207 60.26 148.206 60.2602C148.206 60.2604 148.206 60.2606 148.206 60.2608C148.206 60.261 148.205 60.2612 148.205 60.2614C148.205 60.2616 148.205 60.2618 148.205 60.262C148.204 60.2623 148.204 60.2625 148.204 60.2627C148.204 60.2629 148.203 60.2631 148.203 60.2633C148.203 60.2635 148.203 60.2637 148.203 60.2639C148.202 60.2641 148.202 60.2643 148.202 60.2645C148.202 60.2647 148.202 60.2649 148.201 60.2651C148.201 60.2653 148.201 60.2656 148.201 60.2658C148.201 60.266 148.2 60.2662 148.2 60.2664C148.2 60.2666 148.2 60.2668 148.2 60.267C148.199 60.2672 148.199 60.2674 148.199 60.2676C148.199 60.2678 148.199 60.268 148.198 60.2683C148.198 60.2685 148.198 60.2687 148.198 60.2689C148.197 60.2691 148.197 60.2693 148.197 60.2695C148.197 60.2697 148.197 60.2699 148.196 60.2701C148.196 60.2703 148.196 60.2706 148.196 60.2708C148.196 60.271 148.195 60.2712 148.195 60.2714C148.195 60.2716 148.195 60.2718 148.195 60.272C148.194 60.2722 148.194 60.2725 148.194 60.2727C148.194 60.2729 148.193 60.2731 148.193 60.2733C148.193 60.2735 148.193 60.2737 148.193 60.2739C148.192 60.2741 148.192 60.2744 148.192 60.2746C148.192 60.2748 148.192 60.275 148.191 60.2752C148.191 60.2754 148.191 60.2756 148.191 60.2758C148.191 60.2761 148.19 60.2763 148.19 60.2765C148.19 60.2767 148.19 60.2769 148.189 60.2771C148.189 60.2773 148.189 60.2776 148.189 60.2778C148.189 60.278 148.188 60.2782 148.188 60.2784C148.188 60.2786 148.188 60.2788 148.188 60.2791C148.187 60.2793 148.187 60.2795 148.187 60.2797C148.187 60.2799 148.186 60.2801 148.186 60.2804C148.186 60.2806 148.186 60.2808 148.186 60.281C148.185 60.2812 148.185 60.2814 148.185 60.2816C148.185 60.2819 148.184 60.2821 148.184 60.2823C148.184 60.2825 148.184 60.2827 148.184 60.2829C148.183 60.2832 148.183 60.2834 148.183 60.2836C148.183 60.2838 148.183 60.284 148.182 60.2843C148.182 60.2845 148.182 60.2847 148.182 60.2849C148.181 60.2851 148.181 60.2853 148.181 60.2856C148.181 60.2858 148.181 60.286 148.18 60.2862C148.18 60.2864 148.18 60.2867 148.18 60.2869C148.179 60.2871 148.179 60.2873 148.179 60.2875C148.179 60.2878 148.179 60.288 148.178 60.2882C148.178 60.2884 148.178 60.2886 148.178 60.2889C148.177 60.2891 148.177 60.2893 148.177 60.2895C148.177 60.2897 148.177 60.29 148.176 60.2902C148.176 60.2904 148.176 60.2906 148.176 60.2908C148.176 60.2911 148.175 60.2913 148.175 60.2915C148.175 60.2917 148.175 60.292 148.174 60.2922C148.174 60.2924 148.174 60.2926 148.174 60.2928C148.174 60.2931 148.173 60.2933 148.173 60.2935C148.173 60.2937 148.173 60.294 148.172 60.2942C148.172 60.2944 148.172 60.2946 148.172 60.2949C148.171 60.2951 148.171 60.2953 148.171 60.2955C148.171 60.2958 148.171 60.296 148.17 60.2962C148.17 60.2964 148.17 60.2966 148.17 60.2969C148.169 60.2971 148.169 60.2973 148.169 60.2975C148.169 60.2978 148.169 60.298 148.168 60.2982C148.168 60.2985 148.168 60.2987 148.168 60.2989C148.167 60.2991 148.167 60.2994 148.167 60.2996C148.167 60.2998 148.167 60.3 148.166 60.3003C148.166 60.3005 148.166 60.3007 148.166 60.3009C148.165 60.3012 148.165 60.3014 148.165 60.3016C148.165 60.3018 148.164 60.3021 148.164 60.3023C148.164 60.3025 148.164 60.3028 148.164 60.303C148.163 60.3032 148.163 60.3034 148.163 60.3037C148.163 60.3039 148.162 60.3041 148.162 60.3044C148.162 60.3046 148.162 60.3048 148.162 60.305C148.161 60.3053 148.161 60.3055 148.161 60.3057C148.161 60.306 148.16 60.3062 148.16 60.3064C148.16 60.3067 148.16 60.3069 148.159 60.3071C148.159 60.3073 148.159 60.3076 148.159 60.3078C148.159 60.308 148.158 60.3083 148.158 60.3085C148.158 60.3087 148.158 60.309 148.157 60.3092C148.157 60.3094 148.157 60.3097 148.157 60.3099C148.156 60.3101 148.156 60.3104 148.156 60.3106C148.156 60.3108 148.156 60.311 148.155 60.3113C148.155 60.3115 148.155 60.3117 148.155 60.312C148.154 60.3122 148.154 60.3124 148.154 60.3127C148.154 60.3129 148.153 60.3131 148.153 60.3134C148.153 60.3136 148.153 60.3138 148.152 60.3141C148.152 60.3143 148.152 60.3145 148.152 60.3148C148.152 60.315 148.151 60.3153 148.151 60.3155C148.151 60.3157 148.151 60.316 148.15 60.3162C148.15 60.3164 148.15 60.3167 148.15 60.3169C148.149 60.3171 148.149 60.3174 148.149 60.3176C148.149 60.3178 148.148 60.3181 148.148 60.3183C148.148 60.3185 148.148 60.3188 148.148 60.319C148.147 60.3193 148.147 60.3195 148.147 60.3197C148.147 60.32 148.146 60.3202 148.146 60.3204C148.146 60.3207 148.146 60.3209 148.145 60.3212C148.145 60.3214 148.145 60.3216 148.145 60.3219C148.144 60.3221 148.144 60.3223 148.144 60.3226C148.144 60.3228 148.144 60.3231 148.143 60.3233C148.143 60.3235 148.143 60.3238 148.143 60.324C148.142 60.3243 148.142 60.3245 148.142 60.3247C148.142 60.325 148.141 60.3252 148.141 60.3255C148.141 60.3257 148.141 60.3259 148.14 60.3262C148.14 60.3264 148.14 60.3267 148.14 60.3269C148.139 60.3271 148.139 60.3274 148.139 60.3276C148.139 60.3279 148.138 60.3281 148.138 60.3283C148.138 60.3286 148.138 60.3288 148.138 60.3291C148.137 60.3293 148.137 60.3295 148.137 60.3298C148.137 60.33 148.136 60.3303 148.136 60.3305C148.136 60.3308 148.136 60.331 148.135 60.3312C148.135 60.3315 148.135 60.3317 148.135 60.332C148.134 60.3322 148.134 60.3325 148.134 60.3327C148.134 60.3329 148.133 60.3332 148.133 60.3334C148.133 60.3337 148.133 60.3339 148.132 60.3342C148.132 60.3344 148.132 60.3347 148.132 60.3349C148.131 60.3351 148.131 60.3354 148.131 60.3356C148.131 60.3359 148.13 60.3361 148.13 60.3364C148.13 60.3366 148.13 60.3369 148.129 60.3371C148.129 60.3374 148.129 60.3376 148.129 60.3378C148.128 60.3381 148.128 60.3383 148.128 60.3386C148.128 60.3388 148.127 60.3391 148.127 60.3393C148.127 60.3396 148.127 60.3398 148.127 60.3401C148.126 60.3403 148.126 60.3406 148.126 60.3408C148.126 60.3411 148.125 60.3413 148.125 60.3416C148.125 60.3418 148.125 60.342 148.124 60.3423C148.124 60.3425 148.124 60.3428 148.124 60.343C148.123 60.3433 148.123 60.3435 148.123 60.3438C148.123 60.344 148.122 60.3443 148.122 60.3445C148.122 60.3448 148.122 60.345 148.121 60.3453C148.121 60.3455 148.121 60.3458 148.121 60.346C148.12 60.3463 148.12 60.3465 148.12 60.3468C148.12 60.347 148.119 60.3473 148.119 60.3475C148.119 60.3478 148.119 60.348 148.118 60.3483C148.118 60.3485 148.118 60.3488 148.118 60.349C148.117 60.3493 148.117 60.3495 148.117 60.3498C148.117 60.3501 148.116 60.3503 148.116 60.3506C148.116 60.3508 148.116 60.3511 148.115 60.3513C148.115 60.3516 148.115 60.3518 148.115 60.3521C148.114 60.3523 148.114 60.3526 148.114 60.3528C148.113 60.3531 148.113 60.3533 148.113 60.3536C148.113 60.3538 148.112 60.3541 148.112 60.3544C148.112 60.3546 148.112 60.3549 148.111 60.3551C148.111 60.3554 148.111 60.3556 148.111 60.3559C148.11 60.3561 148.11 60.3564 148.11 60.3566C148.11 60.3569 148.109 60.3572 148.109 60.3574C148.109 60.3577 148.109 60.3579 148.108 60.3582C148.108 60.3584 148.108 60.3587 148.108 60.3589C148.107 60.3592 148.107 60.3595 148.107 60.3597C148.107 60.36 148.106 60.3602 148.106 60.3605C148.106 60.3607 148.106 60.361 148.105 60.3613C148.105 60.3615 148.105 60.3618 148.105 60.362C148.104 60.3623 148.104 60.3625 148.104 60.3628C148.104 60.3631 148.103 60.3633 148.103 60.3636C148.103 60.3638 148.102 60.3641 148.102 60.3644C148.102 60.3646 148.102 60.3649 148.101 60.3651C148.101 60.3654 148.101 60.3657 148.101 60.3659C148.1 60.3662 148.1 60.3664 148.1 60.3667C148.1 60.367 148.099 60.3672 148.099 60.3675C148.099 60.3677 148.099 60.368 148.098 60.3683C148.098 60.3685 148.098 60.3688 148.098 60.369C148.097 60.3693 148.097 60.3696 148.097 60.3698C148.096 60.3701 148.096 60.3703 148.096 60.3706C148.096 60.3709 148.095 60.3711 148.095 60.3714C148.095 60.3717 148.095 60.3719 148.094 60.3722C148.094 60.3724 148.094 60.3727 148.094 60.373C148.093 60.3732 148.093 60.3735 148.093 60.3738C148.093 60.374 148.092 60.3743 148.092 60.3745C148.092 60.3748 148.091 60.3751 148.091 60.3753C148.091 60.3756 148.091 60.3759 148.09 60.3761C148.09 60.3764 148.09 60.3767 148.09 60.3769C148.089 60.3772 148.089 60.3775 148.089 60.3777C148.089 60.378 148.088 60.3783 148.088 60.3785C148.088 60.3788 148.088 60.379 148.087 60.3793C148.087 60.3796 148.087 60.3798 148.086 60.3801C148.086 60.3804 148.086 60.3806 148.086 60.3809C148.085 60.3812 148.085 60.3814 148.085 60.3817C148.085 60.382 148.084 60.3822 148.084 60.3825C148.084 60.3828 148.084 60.383 148.083 60.3833C148.083 60.3836 148.083 60.3839 148.082 60.3841C148.082 60.3844 148.082 60.3847 148.082 60.3849C148.081 60.3852 148.081 60.3855 148.081 60.3857C148.081 60.386 148.08 60.3863 148.08 60.3865C148.08 60.3868 148.079 60.3871 148.079 60.3873C148.079 60.3876 148.079 60.3879 148.078 60.3882C148.078 60.3884 148.078 60.3887 148.078 60.389C148.077 60.3892 148.077 60.3895 148.077 60.3898C148.077 60.39 148.076 60.3903 148.076 60.3906C148.076 60.3909 148.075 60.3911 148.075 60.3914C148.075 60.3917 148.075 60.3919 148.074 60.3922C148.074 60.3925 148.074 60.3928 148.074 60.393C148.073 60.3933 148.073 60.3936 148.073 60.3939C148.072 60.3941 148.072 60.3944 148.072 60.3947C148.072 60.3949 148.071 60.3952 148.071 60.3955C148.071 60.3958 148.071 60.396 148.07 60.3963C148.07 60.3966 148.07 60.3969 148.069 60.3971C148.069 60.3974 148.069 60.3977 148.069 60.398C148.068 60.3982 148.068 60.3985 148.068 60.3988C148.068 60.399 148.067 60.3993 148.067 60.3996C148.067 60.3999 148.066 60.4001 148.066 60.4004C148.066 60.4007 148.066 60.401 148.065 60.4013C148.065 60.4015 148.065 60.4018 148.064 60.4021C148.064 60.4024 148.064 60.4026 148.064 60.4029C148.063 60.4032 148.063 60.4035 148.063 60.4037C148.063 60.404 148.062 60.4043 148.062 60.4046C148.062 60.4048 148.061 60.4051 148.061 60.4054C148.061 60.4057 148.061 60.406 148.06 60.4062C148.06 60.4065 148.06 60.4068 148.06 60.4071C148.059 60.4073 148.059 60.4076 148.059 60.4079C148.058 60.4082 148.058 60.4085 148.058 60.4087C148.058 60.409 148.057 60.4093 148.057 60.4096C148.057 60.4099 148.056 60.4101 148.056 60.4104C148.056 60.4107 148.056 60.411 148.055 60.4113C148.055 60.4115 148.055 60.4118 148.054 60.4121C148.054 60.4124 148.054 60.4127 148.054 60.4129C148.053 60.4132 148.053 60.4135 148.053 60.4138C148.053 60.4141 148.052 60.4143 148.052 60.4146C148.052 60.4149 148.051 60.4152 148.051 60.4155C148.051 60.4158 148.051 60.416 148.05 60.4163C148.05 60.4166 148.05 60.4169 148.049 60.4172C148.049 60.4175 148.049 60.4177 148.049 60.418C148.048 60.4183 148.048 60.4186 148.048 60.4189C148.047 60.4192 148.047 60.4194 148.047 60.4197C148.047 60.42 148.046 60.4203 148.046 60.4206C148.046 60.4209 148.045 60.4211 148.045 60.4214C148.045 60.4217 148.045 60.422 148.044 60.4223C148.044 60.4226 148.044 60.4228 148.043 60.4231C148.043 60.4234 148.043 60.4237 148.043 60.424C148.042 60.4243 148.042 60.4246 148.042 60.4248C148.041 60.4251 148.041 60.4254 148.041 60.4257C148.041 60.426 148.04 60.4263 148.04 60.4266C148.04 60.4269 148.039 60.4271 148.039 60.4274C148.039 60.4277 148.039 60.428 148.038 60.4283C148.038 60.4286 148.038 60.4289 148.037 60.4291C148.037 60.4294 148.037 60.4297 148.037 60.43C148.036 60.4303 148.036 60.4306 148.036 60.4309C148.035 60.4312 148.035 60.4315 148.035 60.4317C148.035 60.432 148.034 60.4323 148.034 60.4326C148.034 60.4329 148.033 60.4332 148.033 60.4335C148.033 60.4338 148.033 60.4341 148.032 60.4344C148.032 60.4346 148.032 60.4349 148.031 60.4352C148.031 60.4355 148.031 60.4358 148.03 60.4361C148.03 60.4364 148.03 60.4367 148.03 60.437C148.029 60.4373 148.029 60.4375 148.029 60.4378C148.028 60.4381 148.028 60.4384 148.028 60.4387C148.028 60.439 148.027 60.4393 148.027 60.4396C148.027 60.4399 148.026 60.4402 148.026 60.4405C148.026 60.4408 148.026 60.4411 148.025 60.4413C148.025 60.4416 148.025 60.4419 148.024 60.4422C148.024 60.4425 148.024 60.4428 148.023 60.4431C148.023 60.4434 148.023 60.4437 148.023 60.444C148.022 60.4443 148.022 60.4446 148.022 60.4449C148.021 60.4452 148.021 60.4455 148.021 60.4458C148.021 60.4461 148.02 60.4463 148.02 60.4466C148.02 60.4469 148.019 60.4472 148.019 60.4475C148.019 60.4478 148.018 60.4481 148.018 60.4484C148.018 60.4487 148.018 60.449 148.017 60.4493C148.017 60.4496 148.017 60.4499 148.016 60.4502C148.016 60.4505 148.016 60.4508 148.015 60.4511C148.015 60.4514 148.015 60.4517 148.015 60.452C148.014 60.4523 148.014 60.4526 148.014 60.4529C148.013 60.4532 148.013 60.4535 148.013 60.4538C148.013 60.4541 148.012 60.4544 148.012 60.4547C148.012 60.455 148.011 60.4553 148.011 60.4556C148.011 60.4558 148.01 60.4561 148.01 60.4564C148.01 60.4567 148.01 60.457 148.009 60.4573C148.009 60.4576 148.009 60.4579 148.008 60.4582C148.008 60.4585 148.008 60.4588 148.007 60.4591C148.007 60.4594 148.007 60.4597 148.007 60.46C148.006 60.4603 148.006 60.4606 148.006 60.4609C148.005 60.4612 148.005 60.4616 148.005 60.4619C148.004 60.4622 148.004 60.4625 148.004 60.4628C148.004 60.4631 148.003 60.4634 148.003 60.4637C148.003 60.464 148.002 60.4643 148.002 60.4646C148.002 60.4649 148.001 60.4652 148.001 60.4655C148.001 60.4658 148 60.4661 148 60.4664C148 60.4667 148 60.467 147.999 60.4673C147.999 60.4676 147.999 60.4679 147.998 60.4682C147.998 60.4685 147.998 60.4688 147.997 60.4691C147.997 60.4694 147.997 60.4697 147.997 60.47C147.996 60.4703 147.996 60.4706 147.996 60.4709C147.995 60.4713 147.995 60.4716 147.995 60.4719C147.994 60.4722 147.994 60.4725 147.994 60.4728C147.993 60.4731 147.993 60.4734 147.993 60.4737C147.993 60.474 147.992 60.4743 147.992 60.4746C147.992 60.4749 147.991 60.4752 147.991 60.4755C147.991 60.4758 147.99 60.4762 147.99 60.4765C147.99 60.4768 147.989 60.4771 147.989 60.4774C147.989 60.4777 147.989 60.478 147.988 60.4783C147.988 60.4786 147.988 60.4789 147.987 60.4792C147.987 60.4795 147.987 60.4798 147.986 60.4802C147.986 60.4805 147.986 60.4808 147.985 60.4811C147.985 60.4814 147.985 60.4817 147.985 60.482C147.984 60.4823 147.984 60.4826 147.984 60.4829C147.983 60.4832 147.983 60.4836 147.983 60.4839C147.982 60.4842 147.982 60.4845 147.982 60.4848C147.981 60.4851 147.981 60.4854 147.981 60.4857C147.981 60.486 147.98 60.4864 147.98 60.4867C147.98 60.487 147.979 60.4873 147.979 60.4876C147.979 60.4879 147.978 60.4882 147.978 60.4885C147.978 60.4888 147.977 60.4892 147.977 60.4895C147.977 60.4898 147.976 60.4901 147.976 60.4904C147.976 60.4907 147.976 60.491 147.975 60.4913C147.975 60.4917 147.975 60.492 147.974 60.4923C147.974 60.4926 147.974 60.4929 147.973 60.4932C147.973 60.4935 147.973 60.4939 147.972 60.4942C147.972 60.4945 147.972 60.4948 147.971 60.4951C147.971 60.4954 147.971 60.4957 147.971 60.4961C147.97 60.4964 147.97 60.4967 147.97 60.497C147.969 60.4973 147.969 60.4976 147.969 60.498C147.968 60.4983 147.968 60.4986 147.968 60.4989C147.967 60.4992 147.967 60.4995 147.967 60.4998C147.966 60.5002 147.966 60.5005 147.966 60.5008C147.965 60.5011 147.965 60.5014 147.965 60.5017C147.965 60.5021 147.964 60.5024 147.964 60.5027C147.964 60.503 147.963 60.5033 147.963 60.5037C147.963 60.504 147.962 60.5043 147.962 60.5046C147.962 60.5049 147.961 60.5052 147.961 60.5056C147.961 60.5059 147.96 60.5062 147.96 60.5065C147.96 60.5068 147.959 60.5072 147.959 60.5075C147.959 60.5078 147.958 60.5081 147.958 60.5084C147.958 60.5088 147.957 60.5091 147.957 60.5094C147.957 60.5097 147.957 60.51 147.956 60.5104C147.956 60.5107 147.956 60.511 147.955 60.5113C147.955 60.5116 147.955 60.512 147.954 60.5123C147.954 60.5126 147.954 60.5129 147.953 60.5132C147.953 60.5136 147.953 60.5139 147.952 60.5142C147.952 60.5145 147.952 60.5149 147.951 60.5152C147.951 60.5155 147.951 60.5158 147.95 60.5161C147.95 60.5165 147.95 60.5168 147.949 60.5171C147.949 60.5174 147.949 60.5178 147.948 60.5181C147.948 60.5184 147.948 60.5187 147.948 60.5191C147.947 60.5194 147.947 60.5197 147.947 60.52C147.946 60.5203 147.946 60.5207 147.946 60.521C147.945 60.5213 147.945 60.5216 147.945 60.522C147.944 60.5223 147.944 60.5226 147.944 60.5229C147.943 60.5233 147.943 60.5236 147.943 60.5239C147.942 60.5242 147.942 60.5246 147.942 60.5249C147.941 60.5252 147.941 60.5256 147.941 60.5259C147.94 60.5262 147.94 60.5265 147.94 60.5269C147.939 60.5272 147.939 60.5275 147.939 60.5278C147.938 60.5282 147.938 60.5285 147.938 60.5288C147.937 60.5291 147.937 60.5295 147.937 60.5298C147.936 60.5301 147.936 60.5305 147.936 60.5308C147.935 60.5311 147.935 60.5314 147.935 60.5318C147.934 60.5321 147.934 60.5324 147.934 60.5328C147.933 60.5331 147.933 60.5334 147.933 60.5337C147.933 60.5341 147.932 60.5344 147.932 60.5347C147.932 60.5351 147.931 60.5354 147.931 60.5357C147.931 60.5361 147.93 60.5364 147.93 60.5367C147.93 60.537 147.929 60.5374 147.929 60.5377C147.929 60.538 147.928 60.5384 147.928 60.5387C147.928 60.539 147.927 60.5394 147.927 60.5397C147.927 60.54 147.926 60.5404 147.926 60.5407C147.926 60.541 147.925 60.5413 147.925 60.5417C147.925 60.542 147.924 60.5423 147.924 60.5427C147.924 60.543 147.923 60.5433 147.923 60.5437C147.923 60.544 147.922 60.5443 147.922 60.5447C147.922 60.545 147.921 60.5453 147.921 60.5457C147.921 60.546 147.92 60.5463 147.92 60.5467C147.92 60.547 147.919 60.5473 147.919 60.5477C147.919 60.548 147.918 60.5483 147.918 60.5487C147.918 60.549 147.917 60.5494 147.917 60.5497C147.917 60.55 147.916 60.5504 147.916 60.5507C147.916 60.551 147.915 60.5514 147.915 60.5517C147.915 60.552 147.914 60.5524 147.914 60.5527C147.914 60.553 147.913 60.5534 147.913 60.5537C147.913 60.5541 147.912 60.5544 147.912 60.5547C147.912 60.5551 147.911 60.5554 147.911 60.5557C147.91 60.5561 147.91 60.5564 147.91 60.5568C147.909 60.5571 147.909 60.5574 147.909 60.5578C147.908 60.5581 147.908 60.5584 147.908 60.5588C147.907 60.5591 147.907 60.5595 147.907 60.5598C147.906 60.5601 147.906 60.5605 147.906 60.5608C147.905 60.5611 147.905 60.5615 147.905 60.5618C147.904 60.5622 147.904 60.5625 147.904 60.5628C147.903 60.5632 147.903 60.5635 147.903 60.5639C147.902 60.5642 147.902 60.5645 147.902 60.5649C147.901 60.5652 147.901 60.5656 147.901 60.5659C147.9 60.5663 147.9 60.5666 147.9 60.5669C147.899 60.5673 147.899 60.5676 147.899 60.568C147.898 60.5683 147.898 60.5686 147.898 60.569C147.897 60.5693 147.897 60.5697 147.897 60.57C147.896 60.5704 147.896 60.5707 147.896 60.571C147.895 60.5714 147.895 60.5717 147.895 60.5721C147.894 60.5724 147.894 60.5728 147.893 60.5731C147.893 60.5734 147.893 60.5738 147.892 60.5741C147.892 60.5745 147.892 60.5748 147.891 60.5752C147.891 60.5755 147.891 60.5758 147.89 60.5762C147.89 60.5765 147.89 60.5769 147.889 60.5772C147.889 60.5776 147.889 60.5779 147.888 60.5783C147.888 60.5786 147.888 60.579 147.887 60.5793C147.887 60.5796 147.887 60.58 147.886 60.5803C147.886 60.5807 147.886 60.581 147.885 60.5814C147.885 60.5817 147.885 60.5821 147.884 60.5824C147.884 60.5828 147.883 60.5831 147.883 60.5835C147.883 60.5838 147.882 60.5842 147.882 60.5845C147.882 60.5848 147.881 60.5852 147.881 60.5855C147.881 60.5859 147.88 60.5862 147.88 60.5866C147.88 60.5869 147.879 60.5873 147.879 60.5876C147.879 60.588 147.878 60.5883 147.878 60.5887C147.878 60.589 147.877 60.5894 147.877 60.5897C147.876 60.5901 147.876 60.5904 147.876 60.5908C147.875 60.5911 147.875 60.5915 147.875 60.5918C147.874 60.5922 147.874 60.5925 147.874 60.5929C147.873 60.5932 147.873 60.5936 147.873 60.5939C147.872 60.5943 147.872 60.5946 147.872 60.595C147.871 60.5953 147.871 60.5957 147.871 60.596C147.87 60.5964 147.87 60.5967 147.869 60.5971C147.869 60.5974 147.869 60.5978 147.868 60.5981C147.868 60.5985 147.868 60.5989 147.867 60.5992C147.867 60.5996 147.867 60.5999 147.866 60.6003C147.866 60.6006 147.866 60.601 147.865 60.6013C147.865 60.6017 147.865 60.602 147.864 60.6024C147.864 60.6027 147.863 60.6031 147.863 60.6034C147.863 60.6038 147.862 60.6042 147.862 60.6045C147.862 60.6049 147.861 60.6052 147.861 60.6056C147.861 60.6059 147.86 60.6063 147.86 60.6066C147.86 60.607 147.859 60.6073 147.859 60.6077C147.859 60.6081 147.858 60.6084 147.858 60.6088C147.857 60.6091 147.857 60.6095 147.857 60.6098C147.856 60.6102 147.856 60.6106 147.856 60.6109C147.855 60.6113 147.855 60.6116 147.855 60.612C147.854 60.6123 147.854 60.6127 147.854 60.6131C147.853 60.6134 147.853 60.6138 147.852 60.6141C147.852 60.6145 147.852 60.6148 147.851 60.6152C147.851 60.6156 147.851 60.6159 147.85 60.6163C147.85 60.6166 147.85 60.617 147.849 60.6173C147.849 60.6177 147.849 60.6181 147.848 60.6184C147.848 60.6188 147.847 60.6191 147.847 60.6195C147.847 60.6199 147.846 60.6202 147.846 60.6206C147.846 60.6209 147.845 60.6213 147.845 60.6217C147.845 60.622 147.844 60.6224 147.844 60.6227C147.843 60.6231 147.843 60.6235 147.843 60.6238C147.842 60.6242 147.842 60.6246 147.842 60.6249C147.841 60.6253 147.841 60.6256 147.841 60.626C147.84 60.6264 147.84 60.6267 147.839 60.6271C147.839 60.6274 147.839 60.6278 147.838 60.6282C147.838 60.6285 147.838 60.6289 147.837 60.6293C147.837 60.6296 147.837 60.63 147.836 60.6303C147.836 60.6307 147.835 60.6311 147.835 60.6314C147.835 60.6318 147.834 60.6322 147.834 60.6325C147.834 60.6329 147.833 60.6333 147.833 60.6336C147.833 60.634 147.832 60.6344 147.832 60.6347C147.831 60.6351 147.831 60.6354 147.831 60.6358C147.83 60.6362 147.83 60.6365 147.83 60.6369C147.829 60.6373 147.829 60.6376 147.829 60.638C147.828 60.6384 147.828 60.6387 147.827 60.6391C147.827 60.6395 147.827 60.6398 147.826 60.6402C147.826 60.6406 147.826 60.6409 147.825 60.6413C147.825 60.6417 147.825 60.642 147.824 60.6424C147.824 60.6428 147.823 60.6431 147.823 60.6435C147.823 60.6439 147.822 60.6442 147.822 60.6446C147.822 60.645 147.821 60.6453 147.821 60.6457C147.82 60.6461 147.82 60.6465 147.82 60.6468C147.819 60.6472 147.819 60.6476 147.819 60.6479C147.818 60.6483 147.818 60.6487 147.818 60.649C147.817 60.6494 147.817 60.6498 147.816 60.6501C147.816 60.6505 147.816 60.6509 147.815 60.6513C147.815 60.6516 147.815 60.652 147.814 60.6524C147.814 60.6527 147.813 60.6531 147.813 60.6535C147.813 60.6538 147.812 60.6542 147.812 60.6546C147.812 60.655 147.811 60.6553 147.811 60.6557C147.81 60.6561 147.81 60.6564 147.81 60.6568C147.809 60.6572 147.809 60.6576 147.809 60.6579C147.808 60.6583 147.808 60.6587 147.808 60.6591C147.807 60.6594 147.807 60.6598 147.806 60.6602C147.806 60.6605 147.806 60.6609 147.805 60.6613C147.805 60.6617 147.805 60.662 147.804 60.6624C147.804 60.6628 147.803 60.6632 147.803 60.6635C147.803 60.6639 147.802 60.6643 147.802 60.6647C147.802 60.665 147.801 60.6654 147.801 60.6658L150.629 63.4942ZM150.595 63.4089C153.22 61.9956 155.381 60.4337 157.01 58.6959L154.092 55.9601C152.841 57.2943 151.066 58.6124 148.699 59.8871L150.595 63.4089ZM157.051 58.6512C158.544 56.959 159.982 55.1236 161.365 53.1469L158.089 50.8531C156.784 52.7164 155.438 54.433 154.051 56.0048L157.051 58.6512ZM161.498 52.9297C163.749 48.6416 164.751 42.088 164.751 33.568H160.751C160.751 41.944 159.737 47.6784 157.956 51.0703L161.498 52.9297ZM164.751 33.568V30.256H160.751V33.568H164.751ZM164.75 30.1929C164.453 20.803 162.073 13.4272 157.284 8.42485L154.394 11.1911C158.245 15.2128 160.473 21.469 160.752 30.3191L164.75 30.1929ZM157.28 8.42071C154.643 5.68274 151.875 3.67069 148.962 2.48381L147.452 6.18818C149.723 7.1133 152.043 8.74925 154.398 11.1953L157.28 8.42071ZM148.962 2.48381C146.14 1.3343 143.244 0.751999 140.287 0.751999V4.752C142.706 4.752 145.09 5.2257 147.452 6.18818L148.962 2.48381ZM140.287 0.751999H86.719V4.752H140.287V0.751999ZM86.719 0.751999C85.9307 0.751999 84.9721 0.950425 84.2248 1.69778C83.4774 2.44514 83.279 3.40371 83.279 4.192H87.279C87.279 4.02029 87.3206 4.25885 87.0532 4.52621C86.7859 4.79357 86.5473 4.752 86.719 4.752V0.751999ZM135.553 23.4537C136.658 23.6044 138.058 24.564 139.495 27.5285L143.095 25.7835C141.46 22.412 139.212 19.9156 136.093 19.4903L135.553 23.4537ZM139.506 27.5504C139.864 28.2658 140.089 29.072 140.166 29.9901L144.152 29.6579C144.037 28.272 143.686 26.9662 143.084 25.7616L139.506 27.5504ZM140.191 30.1818C140.357 31.0946 140.447 32.1714 140.447 33.424H144.447C144.447 31.9886 144.345 30.6654 144.127 29.4662L140.191 30.1818ZM140.447 33.424C140.447 35.9213 140.09 38.1432 139.406 40.111L143.184 41.425C144.036 38.9767 144.447 36.3027 144.447 33.424H140.447ZM139.382 40.1857C138.787 42.1385 137.949 43.4498 136.969 44.2895L139.573 47.3265C141.281 45.8622 142.459 43.8135 143.208 41.3503L139.382 40.1857ZM137 44.2641C135.532 45.4726 134.487 45.824 133.807 45.824V49.824C135.815 49.824 137.746 48.8314 139.542 47.3519L137 44.2641ZM133.807 45.824H107.743V49.824H133.807V45.824ZM107.743 45.824C107.479 45.824 107.654 45.7598 107.9 45.9841C108.025 46.0971 108.099 46.2258 108.136 46.3255C108.168 46.4137 108.159 46.4459 108.159 46.384H104.159C104.159 47.224 104.399 48.2067 105.21 48.9439C105.984 49.6482 106.951 49.824 107.743 49.824V45.824ZM108.159 46.384V22.912H104.159V46.384H108.159ZM108.159 22.912C108.159 22.7403 108.201 22.9789 107.933 23.2462C107.666 23.5136 107.427 23.472 107.599 23.472V19.472C106.811 19.472 105.852 19.6704 105.105 20.4178C104.357 21.1651 104.159 22.1237 104.159 22.912H108.159ZM107.599 23.472H135.823V19.472H107.599V23.472ZM172.453 69.856L170.454 69.9025L170.454 69.9025L172.453 69.856ZM173.317 79.936L171.35 80.3002L171.354 80.3191L171.358 80.3379L173.317 79.936ZM175.765 90.016L173.844 90.5736L173.844 90.5736L175.765 90.016ZM179.221 97.36L177.621 98.56L177.628 98.5698L177.636 98.5794L179.221 97.36ZM186.421 103.984L185.312 105.648L185.331 105.661L185.351 105.674L186.421 103.984ZM195.637 107.872L195.179 109.819L195.204 109.825L195.229 109.83L195.637 107.872ZM204.709 108.736L204.658 110.735L204.709 108.736ZM240.565 107.872L240.973 109.83L240.998 109.825L241.023 109.819L240.565 107.872ZM249.781 103.984L250.851 105.674L250.871 105.661L250.89 105.648L249.781 103.984ZM256.981 97.36L258.566 98.5794L258.574 98.5698L258.581 98.56L256.981 97.36ZM260.437 90.016L258.516 89.4584L258.516 89.4584L260.437 90.016ZM262.885 79.936L264.844 80.3379L264.848 80.3191L264.852 80.3002L262.885 79.936ZM263.749 69.856L261.75 69.8095L261.75 69.8095L263.749 69.856ZM263.749 39.616L261.75 39.6625L261.75 39.6625L263.749 39.616ZM262.885 29.536L264.852 29.1718L264.848 29.1529L264.844 29.1341L262.885 29.536ZM260.437 19.456L258.516 20.0136L258.516 20.0136L260.437 19.456ZM256.981 12.112L258.581 10.912L258.574 10.9022L258.566 10.8926L256.981 12.112ZM249.781 5.632L248.672 7.2961L248.691 7.3091L248.711 7.32163L249.781 5.632ZM240.565 1.6L241.023 -0.346838L240.998 -0.352723L240.973 -0.357964L240.565 1.6ZM231.493 0.735999L231.442 2.73534L231.442 2.73534L231.493 0.735999ZM204.709 0.735999L204.76 2.73534L204.76 2.73534L204.709 0.735999ZM195.637 1.6L195.229 -0.357964L195.204 -0.352723L195.179 -0.346838L195.637 1.6ZM186.421 5.632L187.491 7.32163L187.511 7.3091L187.53 7.2961L186.421 5.632ZM179.221 12.112L177.636 10.8926L177.628 10.9022L177.621 10.912L179.221 12.112ZM175.765 19.456L177.686 20.0136L177.686 20.0136L175.765 19.456ZM173.317 29.536L171.358 29.1341L171.354 29.1529L171.35 29.1718L173.317 29.536ZM172.453 39.616L170.454 39.5695L170.454 39.5695L172.453 39.616ZM226.597 20.752L226.455 22.7469L226.49 22.7495L226.526 22.7507L226.597 20.752ZM233.509 21.616L233.994 19.6757L233.994 19.6757L233.509 21.616ZM240.853 26.8L239.105 27.7713L239.113 27.7854L239.121 27.7994L240.853 26.8ZM240.853 82.816L242.585 83.8154L242.593 83.8014L242.601 83.7873L240.853 82.816ZM233.509 87.856L233.994 89.7963L233.994 89.7963L233.509 87.856ZM226.597 88.864L226.668 90.8627L226.704 90.8615L226.739 90.8589L226.597 88.864ZM209.605 88.864L209.463 90.8589L209.498 90.8615L209.534 90.8627L209.605 88.864ZM202.693 87.856L202.208 89.7963L202.208 89.7963L202.693 87.856ZM195.349 82.816L193.601 83.7873L193.609 83.8014L193.617 83.8154L195.349 82.816ZM195.349 26.8L197.081 27.7994L197.089 27.7854L197.097 27.7713L195.349 26.8ZM202.693 21.616L202.208 19.6757L202.208 19.6757L202.693 21.616ZM209.605 20.752L209.676 22.7507L209.712 22.7495L209.747 22.7469L209.605 20.752ZM170.309 55.168C170.309 60.8423 170.357 65.7545 170.454 69.9025L174.452 69.8095C174.357 65.7015 174.309 60.8217 174.309 55.168H170.309ZM170.454 69.9025C170.551 74.0846 170.843 77.562 171.35 80.3002L175.284 79.5718C174.831 77.126 174.547 73.8834 174.452 69.8095L170.454 69.9025ZM171.358 80.3379C172.134 84.1228 172.962 87.5361 173.844 90.5736L177.686 89.4584C176.84 86.5439 176.036 83.2372 175.276 79.5341L171.358 80.3379ZM173.844 90.5736C174.757 93.7172 176.001 96.3999 177.621 98.56L180.821 96.16C179.561 94.4801 178.501 92.2668 177.686 89.4584L173.844 90.5736ZM177.636 98.5794C179.702 101.265 182.268 103.619 185.312 105.648L187.53 102.32C184.814 100.509 182.58 98.447 180.806 96.1406L177.636 98.5794ZM185.351 105.674C188.416 107.615 191.694 108.999 195.179 109.819L196.095 105.925C193.052 105.209 190.186 104.001 187.491 102.294L185.351 105.674ZM195.229 109.83C197.698 110.344 200.855 110.638 204.658 110.735L204.76 106.737C201.075 106.642 198.184 106.36 196.045 105.914L195.229 109.83ZM204.658 110.735C208.424 110.832 212.906 110.88 218.101 110.88V106.88C212.928 106.88 208.482 106.832 204.76 106.737L204.658 110.735ZM218.101 110.88C223.296 110.88 227.778 110.832 231.544 110.735L231.442 106.737C227.72 106.832 223.274 106.88 218.101 106.88V110.88ZM231.544 110.735C235.347 110.638 238.504 110.344 240.973 109.83L240.157 105.914C238.018 106.36 235.127 106.642 231.442 106.737L231.544 110.735ZM241.023 109.819C244.508 108.999 247.786 107.615 250.851 105.674L248.711 102.294C246.016 104.001 243.15 105.209 240.107 105.925L241.023 109.819ZM250.89 105.648C253.934 103.619 256.5 101.265 258.566 98.5794L255.396 96.1406C253.622 98.447 251.388 100.509 248.672 102.32L250.89 105.648ZM258.581 98.56C260.201 96.3999 261.445 93.7172 262.358 90.5736L258.516 89.4584C257.701 92.2668 256.641 94.4801 255.381 96.16L258.581 98.56ZM262.358 90.5736C263.24 87.5361 264.068 84.1228 264.844 80.3379L260.926 79.5341C260.166 83.2372 259.362 86.5439 258.516 89.4584L262.358 90.5736ZM264.852 80.3002C265.359 77.562 265.651 74.0846 265.748 69.9025L261.75 69.8095C261.655 73.8834 261.371 77.126 260.918 79.5718L264.852 80.3002ZM265.748 69.9025C265.845 65.7545 265.893 60.8423 265.893 55.168H261.893C261.893 60.8217 261.845 65.7015 261.75 69.8095L265.748 69.9025ZM265.893 55.168V54.304H261.893V55.168H265.893ZM265.893 54.304C265.893 48.6297 265.845 43.7175 265.748 39.5695L261.75 39.6625C261.845 43.7705 261.893 48.6503 261.893 54.304H265.893ZM265.748 39.5695C265.651 35.3874 265.359 31.91 264.852 29.1718L260.918 29.9002C261.371 32.346 261.655 35.5886 261.75 39.6625L265.748 39.5695ZM264.844 29.1341C264.068 25.3492 263.24 21.9359 262.358 18.8984L258.516 20.0136C259.362 22.9281 260.166 26.2348 260.926 29.9379L264.844 29.1341ZM262.358 18.8984C261.445 15.7548 260.201 13.0721 258.581 10.912L255.381 13.312C256.641 14.9919 257.701 17.2051 258.516 20.0136L262.358 18.8984ZM258.566 10.8926C256.492 8.1961 253.913 5.88134 250.851 3.94236L248.711 7.32163C251.409 9.03065 253.63 11.0359 255.396 13.3314L258.566 10.8926ZM250.89 3.9679C247.818 1.9199 244.527 0.47757 241.023 -0.346838L240.107 3.54683C243.131 4.25843 245.984 5.5041 248.672 7.2961L250.89 3.9679ZM240.973 -0.357964C238.504 -0.87237 235.347 -1.16584 231.544 -1.26334L231.442 2.73534C235.127 2.82984 238.018 3.11236 240.157 3.55796L240.973 -0.357964ZM231.544 -1.26334C227.778 -1.35992 223.296 -1.40801 218.101 -1.40801V2.59199C223.274 2.59199 227.72 2.63991 231.442 2.73534L231.544 -1.26334ZM218.101 -1.40801C212.906 -1.40801 208.424 -1.35992 204.658 -1.26334L204.76 2.73534C208.482 2.63991 212.928 2.59199 218.101 2.59199V-1.40801ZM204.658 -1.26334C200.855 -1.16584 197.698 -0.87237 195.229 -0.357964L196.045 3.55796C198.184 3.11236 201.075 2.82984 204.76 2.73534L204.658 -1.26334ZM195.179 -0.346838C191.675 0.47757 188.384 1.9199 185.312 3.9679L187.53 7.2961C190.218 5.5041 193.071 4.25843 196.095 3.54683L195.179 -0.346838ZM185.351 3.94236C182.289 5.88134 179.71 8.1961 177.636 10.8926L180.806 13.3314C182.572 11.0359 184.793 9.03065 187.491 7.32163L185.351 3.94236ZM177.621 10.912C176.001 13.0721 174.757 15.7548 173.844 18.8984L177.686 20.0136C178.501 17.2051 179.561 14.9919 180.821 13.312L177.621 10.912ZM173.844 18.8984C172.962 21.9359 172.134 25.3492 171.358 29.1341L175.276 29.9379C176.036 26.2348 176.84 22.9281 177.686 20.0136L173.844 18.8984ZM171.35 29.1718C170.843 31.91 170.551 35.3874 170.454 39.5695L174.452 39.6625C174.547 35.5886 174.831 32.346 175.284 29.9002L171.35 29.1718ZM170.454 39.5695C170.357 43.7175 170.309 48.6297 170.309 54.304H174.309C174.309 48.6503 174.357 43.7705 174.452 39.6625L170.454 39.5695ZM170.309 54.304V55.168H174.309V54.304H170.309ZM218.101 22.464C221.034 22.464 223.819 22.5586 226.455 22.7469L226.739 18.7571C223.999 18.5614 221.12 18.464 218.101 18.464V22.464ZM226.526 22.7507C229.12 22.8434 231.278 23.1198 233.024 23.5563L233.994 19.6757C231.9 19.1522 229.45 18.8526 226.668 18.7533L226.526 22.7507ZM233.024 23.5563C236.06 24.3153 237.987 25.7594 239.105 27.7713L242.601 25.8287C240.839 22.6566 237.87 20.6447 233.994 19.6757L233.024 23.5563ZM239.121 27.7994C240.297 29.8392 241.013 33.2065 241.013 38.176H245.013C245.013 32.9695 244.289 28.7528 242.585 25.8006L239.121 27.7994ZM241.013 38.176V71.296H245.013V38.176H241.013ZM241.013 71.296C241.013 76.2566 240.3 79.6923 239.105 81.8447L242.601 83.7873C244.286 80.7557 245.013 76.5114 245.013 71.296H241.013ZM239.121 81.8166C238.013 83.7364 236.086 85.1501 233.024 85.9157L233.994 89.7963C237.844 88.8339 240.813 86.8876 242.585 83.8154L239.121 81.8166ZM233.024 85.9157C231.248 86.3596 229.065 86.6826 226.455 86.8691L226.739 90.8589C229.505 90.6614 231.93 90.3124 233.994 89.7963L233.024 85.9157ZM226.526 86.8653C223.864 86.9603 221.056 87.008 218.101 87.008V91.008C221.098 91.008 223.954 90.9597 226.668 90.8627L226.526 86.8653ZM218.101 87.008C215.146 87.008 212.338 86.9603 209.676 86.8653L209.534 90.8627C212.248 90.9597 215.104 91.008 218.101 91.008V87.008ZM209.747 86.8691C207.137 86.6826 204.954 86.3596 203.178 85.9157L202.208 89.7963C204.272 90.3124 206.697 90.6614 209.463 90.8589L209.747 86.8691ZM203.178 85.9157C200.116 85.1501 198.189 83.7364 197.081 81.8166L193.617 83.8154C195.389 86.8876 198.358 88.8339 202.208 89.7963L203.178 85.9157ZM197.097 81.8447C195.902 79.6923 195.189 76.2566 195.189 71.296H191.189C191.189 76.5114 191.916 80.7557 193.601 83.7873L197.097 81.8447ZM195.189 71.296V38.176H191.189V71.296H195.189ZM195.189 38.176C195.189 33.2065 195.905 29.8392 197.081 27.7994L193.617 25.8006C191.913 28.7528 191.189 32.9695 191.189 38.176H195.189ZM197.097 27.7713C198.215 25.7594 200.142 24.3153 203.178 23.5563L202.208 19.6757C198.332 20.6447 195.363 22.6566 193.601 25.8287L197.097 27.7713ZM203.178 23.5563C204.924 23.1198 207.082 22.8434 209.676 22.7507L209.534 18.7533C206.752 18.8526 204.302 19.1522 202.208 19.6757L203.178 23.5563ZM209.747 22.7469C212.383 22.5586 215.168 22.464 218.101 22.464V18.464C215.082 18.464 212.203 18.5614 209.463 18.7571L209.747 22.7469ZM321.046 22.912C321.046 22.7403 321.088 22.9789 320.82 23.2462C320.553 23.5136 320.314 23.472 320.486 23.472V19.472C319.698 19.472 318.739 19.6704 317.992 20.4178C317.245 21.1651 317.046 22.1237 317.046 22.912H321.046ZM320.486 23.472H343.958V19.472H320.486V23.472ZM343.958 23.472C344.746 23.472 345.705 23.2736 346.452 22.5262C347.2 21.7789 347.398 20.8203 347.398 20.032H343.398C343.398 20.2037 343.357 19.9651 343.624 19.6978C343.891 19.4304 344.13 19.472 343.958 19.472V23.472ZM347.398 20.032V4.192H343.398V20.032H347.398ZM347.398 4.192C347.398 3.40371 347.2 2.44514 346.452 1.69778C345.705 0.950426 344.746 0.751999 343.958 0.751999V4.752C344.13 4.752 343.891 4.79357 343.624 4.52621C343.357 4.25885 343.398 4.02029 343.398 4.192H347.398ZM343.958 0.751999H273.254V4.752H343.958V0.751999ZM273.254 0.751999C272.466 0.751999 271.507 0.950425 270.76 1.69778C270.013 2.44514 269.814 3.40371 269.814 4.192H273.814C273.814 4.02029 273.856 4.25885 273.588 4.52621C273.321 4.79357 273.082 4.752 273.254 4.752V0.751999ZM269.814 4.192V20.032H273.814V4.192H269.814ZM269.814 20.032C269.814 20.8203 270.013 21.7789 270.76 22.5262C271.507 23.2736 272.466 23.472 273.254 23.472V19.472C273.082 19.472 273.321 19.4304 273.588 19.6978C273.856 19.9651 273.814 20.2037 273.814 20.032H269.814ZM273.254 23.472H296.726V19.472H273.254V23.472ZM296.726 23.472C296.898 23.472 296.659 23.5136 296.392 23.2462C296.125 22.9789 296.166 22.7403 296.166 22.912H300.166C300.166 22.1237 299.968 21.1651 299.22 20.4178C298.473 19.6704 297.514 19.472 296.726 19.472V23.472ZM296.166 22.912V104.56H300.166V22.912H296.166ZM296.166 104.56C296.166 105.348 296.365 106.307 297.112 107.054C297.859 107.802 298.818 108 299.606 108V104C299.434 104 299.673 103.958 299.94 104.226C300.208 104.493 300.166 104.732 300.166 104.56H296.166ZM299.606 108H317.606V104H299.606V108ZM317.606 108C318.394 108 319.353 107.802 320.1 107.054C320.848 106.307 321.046 105.348 321.046 104.56H317.046C317.046 104.732 317.005 104.493 317.272 104.226C317.539 103.958 317.778 104 317.606 104V108ZM321.046 104.56V22.912H317.046V104.56H321.046ZM353.437 69.856L351.438 69.9025L351.438 69.9025L353.437 69.856ZM354.301 79.936L352.335 80.3002L352.338 80.3191L352.342 80.3379L354.301 79.936ZM356.749 90.016L354.829 90.5736L354.829 90.5736L356.749 90.016ZM360.205 97.36L358.605 98.56L358.613 98.5698L358.62 98.5794L360.205 97.36ZM367.405 103.984L366.296 105.648L366.315 105.661L366.335 105.674L367.405 103.984ZM376.621 107.872L376.163 109.819L376.188 109.825L376.213 109.83L376.621 107.872ZM385.693 108.736L385.642 110.735L385.693 108.736ZM421.549 107.872L421.957 109.83L421.982 109.825L422.007 109.819L421.549 107.872ZM430.765 103.984L431.835 105.674L431.855 105.661L431.875 105.648L430.765 103.984ZM437.965 97.36L439.551 98.5794L439.558 98.5698L439.565 98.56L437.965 97.36ZM441.421 90.016L439.501 89.4584L439.501 89.4584L441.421 90.016ZM443.869 79.936L445.829 80.3379L445.832 80.3191L445.836 80.3002L443.869 79.936ZM444.733 69.856L442.734 69.8095L442.734 69.8095L444.733 69.856ZM444.733 39.616L442.734 39.6625L442.734 39.6625L444.733 39.616ZM443.869 29.536L445.836 29.1718L445.832 29.1529L445.829 29.1341L443.869 29.536ZM441.421 19.456L439.501 20.0136L439.501 20.0136L441.421 19.456ZM437.965 12.112L439.565 10.912L439.558 10.9022L439.551 10.8926L437.965 12.112ZM430.765 5.632L429.656 7.2961L429.675 7.3091L429.695 7.32163L430.765 5.632ZM421.549 1.6L422.007 -0.346838L421.982 -0.352723L421.957 -0.357964L421.549 1.6ZM412.477 0.735999L412.426 2.73534L412.426 2.73534L412.477 0.735999ZM385.693 0.735999L385.745 2.73534L385.745 2.73534L385.693 0.735999ZM376.621 1.6L376.213 -0.357964L376.188 -0.352723L376.163 -0.346838L376.621 1.6ZM367.405 5.632L368.475 7.32163L368.495 7.3091L368.515 7.2961L367.405 5.632ZM360.205 12.112L358.62 10.8926L358.613 10.9022L358.605 10.912L360.205 12.112ZM356.749 19.456L358.67 20.0136L358.67 20.0136L356.749 19.456ZM354.301 29.536L352.342 29.1341L352.338 29.1529L352.335 29.1718L354.301 29.536ZM353.437 39.616L351.438 39.5695L351.438 39.5695L353.437 39.616ZM407.581 20.752L407.439 22.7469L407.474 22.7495L407.51 22.7507L407.581 20.752ZM414.493 21.616L414.978 19.6757L414.978 19.6757L414.493 21.616ZM421.837 26.8L420.089 27.7713L420.097 27.7854L420.105 27.7994L421.837 26.8ZM421.837 82.816L423.57 83.8154L423.578 83.8014L423.586 83.7873L421.837 82.816ZM414.493 87.856L414.978 89.7963L414.978 89.7963L414.493 87.856ZM407.581 88.864L407.653 90.8627L407.688 90.8615L407.724 90.8589L407.581 88.864ZM390.589 88.864L390.447 90.8589L390.482 90.8615L390.518 90.8627L390.589 88.864ZM383.677 87.856L383.192 89.7963L383.192 89.7963L383.677 87.856ZM376.333 82.816L374.585 83.7873L374.593 83.8014L374.601 83.8154L376.333 82.816ZM376.333 26.8L378.066 27.7994L378.074 27.7854L378.082 27.7713L376.333 26.8ZM383.677 21.616L383.192 19.6757L383.192 19.6757L383.677 21.616ZM390.589 20.752L390.661 22.7507L390.696 22.7495L390.732 22.7469L390.589 20.752ZM351.293 55.168C351.293 60.8423 351.341 65.7545 351.438 69.9025L355.437 69.8095C355.341 65.7015 355.293 60.8217 355.293 55.168H351.293ZM351.438 69.9025C351.535 74.0846 351.828 77.562 352.335 80.3002L356.268 79.5718C355.815 77.126 355.532 73.8834 355.437 69.8095L351.438 69.9025ZM352.342 80.3379C353.119 84.1228 353.947 87.5361 354.829 90.5736L358.67 89.4584C357.824 86.5439 357.02 83.2372 356.261 79.5341L352.342 80.3379ZM354.829 90.5736C355.741 93.7172 356.985 96.3999 358.605 98.56L361.805 96.16C360.545 94.4801 359.485 92.2668 358.67 89.4584L354.829 90.5736ZM358.62 98.5794C360.686 101.265 363.252 103.619 366.296 105.648L368.515 102.32C365.799 100.509 363.565 98.447 361.791 96.1406L358.62 98.5794ZM366.335 105.674C369.4 107.615 372.679 108.999 376.163 109.819L377.079 105.925C374.036 105.209 371.17 104.001 368.475 102.294L366.335 105.674ZM376.213 109.83C378.683 110.344 381.84 110.638 385.642 110.735L385.745 106.737C382.059 106.642 379.168 106.36 377.029 105.914L376.213 109.83ZM385.642 110.735C389.408 110.832 393.89 110.88 399.085 110.88V106.88C393.913 106.88 389.466 106.832 385.745 106.737L385.642 110.735ZM399.085 110.88C404.281 110.88 408.762 110.832 412.529 110.735L412.426 106.737C408.704 106.832 404.258 106.88 399.085 106.88V110.88ZM412.529 110.735C416.331 110.638 419.488 110.344 421.957 109.83L421.141 105.914C419.003 106.36 416.112 106.642 412.426 106.737L412.529 110.735ZM422.007 109.819C425.492 108.999 428.77 107.615 431.835 105.674L429.695 102.294C427 104.001 424.135 105.209 421.091 105.925L422.007 109.819ZM431.875 105.648C434.919 103.619 437.485 101.265 439.551 98.5794L436.38 96.1406C434.606 98.447 432.372 100.509 429.656 102.32L431.875 105.648ZM439.565 98.56C441.185 96.3999 442.429 93.7172 443.342 90.5736L439.501 89.4584C438.685 92.2668 437.625 94.4801 436.365 96.16L439.565 98.56ZM443.342 90.5736C444.224 87.5361 445.052 84.1228 445.829 80.3379L441.91 79.5341C441.151 83.2372 440.347 86.5439 439.501 89.4584L443.342 90.5736ZM445.836 80.3002C446.343 77.562 446.636 74.0846 446.733 69.9025L442.734 69.8095C442.639 73.8834 442.356 77.126 441.903 79.5718L445.836 80.3002ZM446.733 69.9025C446.829 65.7545 446.877 60.8423 446.877 55.168H442.877C442.877 60.8217 442.829 65.7015 442.734 69.8095L446.733 69.9025ZM446.877 55.168V54.304H442.877V55.168H446.877ZM446.877 54.304C446.877 48.6297 446.829 43.7175 446.733 39.5695L442.734 39.6625C442.829 43.7705 442.877 48.6503 442.877 54.304H446.877ZM446.733 39.5695C446.636 35.3874 446.343 31.91 445.836 29.1718L441.903 29.9002C442.356 32.346 442.639 35.5886 442.734 39.6625L446.733 39.5695ZM445.829 29.1341C445.052 25.3492 444.224 21.9359 443.342 18.8984L439.501 20.0136C440.347 22.9281 441.151 26.2348 441.91 29.9379L445.829 29.1341ZM443.342 18.8984C442.429 15.7548 441.185 13.0721 439.565 10.912L436.365 13.312C437.625 14.9919 438.685 17.2051 439.501 20.0136L443.342 18.8984ZM439.551 10.8926C437.476 8.1961 434.897 5.88134 431.835 3.94236L429.695 7.32163C432.394 9.03065 434.614 11.0359 436.38 13.3314L439.551 10.8926ZM431.875 3.9679C428.803 1.9199 425.511 0.47757 422.007 -0.346838L421.091 3.54683C424.116 4.25843 426.968 5.5041 429.656 7.2961L431.875 3.9679ZM421.957 -0.357964C419.488 -0.87237 416.331 -1.16584 412.529 -1.26334L412.426 2.73534C416.112 2.82984 419.003 3.11236 421.141 3.55796L421.957 -0.357964ZM412.529 -1.26334C408.762 -1.35992 404.281 -1.40801 399.085 -1.40801V2.59199C404.258 2.59199 408.704 2.63991 412.426 2.73534L412.529 -1.26334ZM399.085 -1.40801C393.89 -1.40801 389.408 -1.35992 385.642 -1.26334L385.745 2.73534C389.466 2.63991 393.913 2.59199 399.085 2.59199V-1.40801ZM385.642 -1.26334C381.84 -1.16584 378.683 -0.87237 376.213 -0.357964L377.029 3.55796C379.168 3.11236 382.059 2.82984 385.745 2.73534L385.642 -1.26334ZM376.163 -0.346838C372.66 0.47757 369.368 1.9199 366.296 3.9679L368.515 7.2961C371.203 5.5041 374.055 4.25843 377.079 3.54683L376.163 -0.346838ZM366.335 3.94236C363.274 5.88134 360.694 8.1961 358.62 10.8926L361.791 13.3314C363.556 11.0359 365.777 9.03065 368.475 7.32163L366.335 3.94236ZM358.605 10.912C356.985 13.0721 355.741 15.7548 354.829 18.8984L358.67 20.0136C359.485 17.2051 360.545 14.9919 361.805 13.312L358.605 10.912ZM354.829 18.8984C353.947 21.9359 353.119 25.3492 352.342 29.1341L356.261 29.9379C357.02 26.2348 357.824 22.9281 358.67 20.0136L354.829 18.8984ZM352.335 29.1718C351.828 31.91 351.535 35.3874 351.438 39.5695L355.437 39.6625C355.532 35.5886 355.815 32.346 356.268 29.9002L352.335 29.1718ZM351.438 39.5695C351.341 43.7175 351.293 48.6297 351.293 54.304H355.293C355.293 48.6503 355.341 43.7705 355.437 39.6625L351.438 39.5695ZM351.293 54.304V55.168H355.293V54.304H351.293ZM399.085 22.464C402.019 22.464 404.803 22.5586 407.439 22.7469L407.724 18.7571C404.984 18.5614 402.104 18.464 399.085 18.464V22.464ZM407.51 22.7507C410.105 22.8434 412.262 23.1198 414.008 23.5563L414.978 19.6757C412.885 19.1522 410.434 18.8526 407.653 18.7533L407.51 22.7507ZM414.008 23.5563C417.044 24.3153 418.971 25.7594 420.089 27.7713L423.586 25.8287C421.823 22.6566 418.855 20.6447 414.978 19.6757L414.008 23.5563ZM420.105 27.7994C421.282 29.8392 421.997 33.2065 421.997 38.176H425.997C425.997 32.9695 425.273 28.7528 423.57 25.8006L420.105 27.7994ZM421.997 38.176V71.296H425.997V38.176H421.997ZM421.997 71.296C421.997 76.2566 421.285 79.6923 420.089 81.8447L423.586 83.7873C425.27 80.7557 425.997 76.5114 425.997 71.296H421.997ZM420.105 81.8166C418.997 83.7364 417.071 85.1501 414.008 85.9157L414.978 89.7963C418.828 88.8339 421.797 86.8876 423.57 83.8154L420.105 81.8166ZM414.008 85.9157C412.233 86.3596 410.05 86.6826 407.439 86.8691L407.724 90.8589C410.489 90.6614 412.914 90.3124 414.978 89.7963L414.008 85.9157ZM407.51 86.8653C404.848 86.9603 402.04 87.008 399.085 87.008V91.008C402.083 91.008 404.939 90.9597 407.653 90.8627L407.51 86.8653ZM399.085 87.008C396.131 87.008 393.323 86.9603 390.661 86.8653L390.518 90.8627C393.232 90.9597 396.088 91.008 399.085 91.008V87.008ZM390.732 86.8691C388.121 86.6826 385.938 86.3596 384.162 85.9157L383.192 89.7963C385.257 90.3124 387.682 90.6614 390.447 90.8589L390.732 86.8691ZM384.162 85.9157C381.1 85.1501 379.173 83.7364 378.066 81.8166L374.601 83.8154C376.373 86.8876 379.343 88.8339 383.192 89.7963L384.162 85.9157ZM378.082 81.8447C376.886 79.6923 376.173 76.2566 376.173 71.296H372.173C372.173 76.5114 372.901 80.7557 374.585 83.7873L378.082 81.8447ZM376.173 71.296V38.176H372.173V71.296H376.173ZM376.173 38.176C376.173 33.2065 376.889 29.8392 378.066 27.7994L374.601 25.8006C372.898 28.7528 372.173 32.9695 372.173 38.176H376.173ZM378.082 27.7713C379.199 25.7594 381.127 24.3153 384.162 23.5563L383.192 19.6757C379.316 20.6447 376.347 22.6566 374.585 25.8287L378.082 27.7713ZM384.162 23.5563C385.909 23.1198 388.066 22.8434 390.661 22.7507L390.518 18.7533C387.737 18.8526 385.286 19.1522 383.192 19.6757L384.162 23.5563ZM390.732 22.7469C393.368 22.5586 396.152 22.464 399.085 22.464V18.464C396.067 18.464 393.187 18.5614 390.447 18.7571L390.732 22.7469ZM502.031 22.912C502.031 22.7403 502.072 22.9789 501.805 23.2462C501.537 23.5136 501.299 23.472 501.471 23.472V19.472C500.682 19.472 499.724 19.6704 498.976 20.4178C498.229 21.1651 498.031 22.1237 498.031 22.912H502.031ZM501.471 23.472H524.943V19.472H501.471V23.472ZM524.943 23.472C525.731 23.472 526.689 23.2736 527.437 22.5262C528.184 21.7789 528.383 20.8203 528.383 20.032H524.383C524.383 20.2037 524.341 19.9651 524.608 19.6978C524.876 19.4304 525.114 19.472 524.943 19.472V23.472ZM528.383 20.032V4.192H524.383V20.032H528.383ZM528.383 4.192C528.383 3.40371 528.184 2.44514 527.437 1.69778C526.689 0.950426 525.731 0.751999 524.943 0.751999V4.752C525.114 4.752 524.876 4.79357 524.608 4.52621C524.341 4.25885 524.383 4.02029 524.383 4.192H528.383ZM524.943 0.751999H454.239V4.752H524.943V0.751999ZM454.239 0.751999C453.45 0.751999 452.492 0.950425 451.744 1.69778C450.997 2.44514 450.799 3.40371 450.799 4.192H454.799C454.799 4.02029 454.84 4.25885 454.573 4.52621C454.305 4.79357 454.067 4.752 454.239 4.752V0.751999ZM450.799 4.192V20.032H454.799V4.192H450.799ZM450.799 20.032C450.799 20.8203 450.997 21.7789 451.744 22.5262C452.492 23.2736 453.45 23.472 454.239 23.472V19.472C454.067 19.472 454.305 19.4304 454.573 19.6978C454.84 19.9651 454.799 20.2037 454.799 20.032H450.799ZM454.239 23.472H477.711V19.472H454.239V23.472ZM477.711 23.472C477.882 23.472 477.644 23.5136 477.376 23.2462C477.109 22.9789 477.151 22.7403 477.151 22.912H481.151C481.151 22.1237 480.952 21.1651 480.205 20.4178C479.457 19.6704 478.499 19.472 477.711 19.472V23.472ZM477.151 22.912V104.56H481.151V22.912H477.151ZM477.151 104.56C477.151 105.348 477.349 106.307 478.096 107.054C478.844 107.802 479.802 108 480.591 108V104C480.419 104 480.657 103.958 480.925 104.226C481.192 104.493 481.151 104.732 481.151 104.56H477.151ZM480.591 108H498.591V104H480.591V108ZM498.591 108C499.379 108 500.337 107.802 501.085 107.054C501.832 106.307 502.031 105.348 502.031 104.56H498.031C498.031 104.732 497.989 104.493 498.256 104.226C498.524 103.958 498.762 104 498.591 104V108ZM502.031 104.56V22.912H498.031V104.56H502.031ZM588.71 70.288L588.184 68.3585L586.71 68.7604V70.288H588.71ZM596.054 64.528L597.664 65.7144L597.791 65.5417L597.879 65.346L596.054 64.528ZM622.838 4.768L624.663 5.58598L624.68 5.54871L624.695 5.51079L622.838 4.768ZM622.838 3.472L620.877 3.86423L620.929 4.12687L621.049 4.36644L622.838 3.472ZM599.798 4.768L601.623 5.58525L601.63 5.5706L601.636 5.55584L599.798 4.768ZM580.07 48.832L581.631 50.0814L581.791 49.8821L581.895 49.6493L580.07 48.832ZM579.062 49.984L577.648 48.5698L577.648 48.5698L579.062 49.984ZM575.462 48.832L573.645 49.6694L573.659 49.6981L573.673 49.7264L575.462 48.832ZM555.014 4.47999L553.168 5.24923L553.182 5.28357L553.197 5.31736L555.014 4.47999ZM531.974 4.912L533.788 4.07055L533.765 4.01999L533.738 3.97082L531.974 4.912ZM559.622 64.528L557.807 65.3694L557.845 65.4517L557.891 65.5301L559.622 64.528ZM563.366 68.56L562.337 70.275L562.361 70.2894L562.385 70.3031L563.366 68.56ZM567.11 70.288H569.11V68.7999L567.684 68.3723L567.11 70.288ZM586.694 108C587.336 108 587.994 107.853 588.599 107.494C589.201 107.135 589.641 106.63 589.951 106.077C590.536 105.032 590.71 103.721 590.71 102.4H586.71C586.71 102.912 586.673 103.31 586.618 103.608C586.561 103.91 586.494 104.064 586.461 104.123C586.434 104.17 586.455 104.115 586.553 104.056C586.653 103.997 586.723 104 586.694 104V108ZM590.71 102.4V70.288H586.71V102.4H590.71ZM589.236 72.2175C590.577 71.8517 591.936 71.1513 593.304 70.2044L591.027 66.9156C589.899 67.6967 588.954 68.1483 588.184 68.3585L589.236 72.2175ZM593.304 70.2044C594.8 69.1691 596.247 67.6373 597.664 65.7144L594.444 63.3416C593.173 65.0667 592.028 66.2229 591.027 66.9156L593.304 70.2044ZM597.879 65.346L624.663 5.58598L621.013 3.95001L594.229 63.71L597.879 65.346ZM624.695 5.51079C625.052 4.61839 625.126 3.57616 624.627 2.57756L621.049 4.36644C621.005 4.27893 620.982 4.17648 620.982 4.084C620.982 4.00083 621 3.97603 620.981 4.02521L624.695 5.51079ZM624.799 3.07977C624.653 2.34838 624.237 1.67329 623.538 1.236C622.909 0.843289 622.227 0.751999 621.686 0.751999V4.752C621.817 4.752 621.662 4.78071 621.418 4.628C621.285 4.54472 621.152 4.42359 621.048 4.2664C620.945 4.11231 620.897 3.96689 620.877 3.86423L624.799 3.07977ZM621.686 0.751999H602.246V4.752H621.686V0.751999ZM602.246 0.751999C600.079 0.751999 598.707 2.23632 597.959 3.98016L601.636 5.55584C601.844 5.07104 602.028 4.87007 602.113 4.79986C602.151 4.76886 602.17 4.76187 602.174 4.76039C602.179 4.75891 602.198 4.752 602.246 4.752V0.751999ZM597.972 3.95074L578.244 48.0147L581.895 49.6493L601.623 5.58525L597.972 3.95074ZM578.508 47.5826C578.149 48.0308 577.864 48.353 577.648 48.5698L580.476 51.3982C580.835 51.039 581.222 50.5932 581.631 50.0814L578.508 47.5826ZM577.648 48.5698C577.804 48.4133 577.953 48.3318 578.035 48.2941C578.117 48.2561 578.166 48.2462 578.16 48.2476C578.156 48.2485 578.123 48.2553 578.051 48.2615C577.982 48.2676 577.888 48.272 577.766 48.272V52.272C578.181 52.272 578.616 52.2438 579.028 52.1524C579.404 52.0688 579.991 51.8835 580.476 51.3982L577.648 48.5698ZM577.766 48.272C577.549 48.272 577.474 48.2263 577.458 48.216C577.439 48.2045 577.357 48.15 577.251 47.9376L573.673 49.7264C574.047 50.474 574.588 51.1394 575.338 51.608C576.089 52.0777 576.926 52.272 577.766 52.272V48.272ZM577.278 47.9946L556.83 3.64263L553.197 5.31736L573.645 49.6694L577.278 47.9946ZM556.86 3.71076C556.511 2.87344 555.979 2.10361 555.195 1.55006C554.4 0.98871 553.489 0.751999 552.566 0.751999V4.752C552.794 4.752 552.868 4.80329 552.888 4.81794C552.92 4.84039 553.036 4.93455 553.168 5.24923L556.86 3.71076ZM552.566 0.751999H532.694V4.752H552.566V0.751999ZM532.694 0.751999C531.846 0.751999 530.231 1.00863 529.68 2.65954C529.458 3.32653 529.528 3.96609 529.644 4.4419C529.763 4.93049 529.971 5.40768 530.209 5.85317L533.738 3.97082C533.592 3.69631 533.542 3.54351 533.53 3.49209C533.514 3.42791 533.577 3.61747 533.475 3.92445C533.42 4.08871 533.327 4.25584 533.193 4.40273C533.062 4.54681 532.924 4.63579 532.818 4.68732C532.629 4.77854 532.543 4.752 532.694 4.752V0.751999ZM530.159 5.75345L557.807 65.3694L561.436 63.6865L533.788 4.07055L530.159 5.75345ZM557.891 65.5301C559.074 67.5738 560.541 69.1976 562.337 70.275L564.395 66.845C563.31 66.1944 562.281 65.1302 561.353 63.5259L557.891 65.5301ZM562.385 70.3031C563.969 71.1938 565.366 71.853 566.535 72.2037L567.684 68.3723C566.933 68.147 565.835 67.6542 564.346 66.8168L562.385 70.3031ZM565.11 70.288V102.4H569.11V70.288H565.11ZM565.11 102.4C565.11 103.735 565.298 105.068 565.935 106.129C566.669 107.353 567.872 108 569.27 108V104C569.193 104 569.223 103.986 569.296 104.027C569.372 104.069 569.389 104.111 569.365 104.071C569.281 103.932 569.11 103.465 569.11 102.4H565.11ZM569.27 108H586.694V104H569.27V108ZM692.663 67.84L693.422 69.6903L693.442 69.6821L693.462 69.6734L692.663 67.84ZM701.735 60.928L700.154 59.7036L700.154 59.7037L701.735 60.928ZM706.775 50.272L704.838 49.7763L704.838 49.7763L706.775 50.272ZM701.735 12.256L700.154 13.4803L700.154 13.4803L701.735 12.256ZM692.663 5.34399L691.825 7.15991L691.844 7.16885L691.864 7.17738L692.663 5.34399ZM685.463 23.344L683.878 24.5634L683.931 24.6318L683.989 24.6955L685.463 23.344ZM688.631 32.56L686.634 32.6709L686.638 32.7325L686.645 32.7937L688.631 32.56ZM688.631 40.48L686.643 40.2591L686.638 40.3107L686.635 40.3626L688.631 40.48ZM687.767 45.376L685.848 44.8117L685.848 44.8117L687.767 45.376ZM685.463 49.696L683.936 48.4041L683.931 48.4099L683.927 48.4156L685.463 49.696ZM629.607 5.77599V104.56H633.607V5.77599H629.607ZM629.607 104.56C629.607 105.348 629.806 106.307 630.553 107.054C631.3 107.802 632.259 108 633.047 108V104C632.875 104 633.114 103.958 633.381 104.226C633.649 104.493 633.607 104.732 633.607 104.56H629.607ZM633.047 108H651.047V104H633.047V108ZM651.047 108C651.835 108 652.794 107.802 653.541 107.054C654.289 106.307 654.487 105.348 654.487 104.56H650.487C650.487 104.732 650.446 104.493 650.713 104.226C650.98 103.958 651.219 104 651.047 104V108ZM654.487 104.56V71.584H650.487V104.56H654.487ZM654.487 71.584C654.487 71.4123 654.529 71.6509 654.261 71.9182C653.994 72.1856 653.755 72.144 653.927 72.144V68.144C653.139 68.144 652.18 68.3424 651.433 69.0898C650.686 69.8371 650.487 70.7957 650.487 71.584H654.487ZM653.927 72.144H678.983V68.144H653.927V72.144ZM678.983 72.144C684.539 72.144 689.372 71.3518 693.422 69.6903L691.904 65.9897C688.466 67.4002 684.18 68.144 678.983 68.144V72.144ZM693.462 69.6734C697.487 67.919 700.79 65.4161 703.317 62.1523L700.154 59.7037C698.072 62.3919 695.327 64.497 691.864 66.0066L693.462 69.6734ZM703.317 62.1523C705.809 58.9336 707.598 55.1254 708.713 50.7677L704.838 49.7763C703.84 53.6746 702.27 56.9704 700.154 59.7036L703.317 62.1523ZM708.713 50.7677C709.817 46.45 710.359 41.6719 710.359 36.448H706.359C706.359 41.4001 705.845 45.838 704.838 49.7763L708.713 50.7677ZM710.359 36.448C710.359 31.4091 709.816 26.7282 708.713 22.4163L704.838 23.4077C705.846 27.3518 706.359 31.6949 706.359 36.448H710.359ZM708.713 22.4163C707.598 18.0586 705.809 14.2504 703.317 11.0316L700.154 13.4803C702.27 16.2136 703.84 19.5094 704.838 23.4077L708.713 22.4163ZM703.317 11.0317C700.79 7.76792 697.487 5.26502 693.462 3.5106L691.864 7.17738C695.327 8.68697 698.072 10.7921 700.154 13.4803L703.317 11.0317ZM693.501 3.52807C689.427 1.64787 684.564 0.751999 678.983 0.751999V4.752C684.154 4.752 688.411 5.58413 691.825 7.15991L693.501 3.52807ZM678.983 0.751999H633.047V4.752H678.983V0.751999ZM633.047 0.751999C632.259 0.751999 631.3 0.950425 630.553 1.69778C629.806 2.44514 629.607 3.40371 629.607 4.192H633.607C633.607 4.02029 633.649 4.25885 633.381 4.52621C633.114 4.79357 632.875 4.752 633.047 4.752V0.751999ZM629.607 4.192V5.77599H633.607V4.192H629.607ZM681.431 23.472C682.608 23.472 683.337 23.8602 683.878 24.5634L687.048 22.1246C685.669 20.3318 683.71 19.472 681.431 19.472V23.472ZM683.989 24.6955C684.821 25.603 685.447 26.7188 685.848 28.0843L689.686 26.9557C689.127 25.0572 688.218 23.389 686.937 21.9925L683.989 24.6955ZM685.848 28.0843C686.284 29.5662 686.547 31.0939 686.634 32.6709L690.628 32.4491C690.524 30.5701 690.21 28.7378 689.686 26.9557L685.848 28.0843ZM686.645 32.7937C686.833 34.3943 686.919 35.6018 686.919 36.448H690.919C690.919 35.3742 690.813 33.9897 690.617 32.3263L686.645 32.7937ZM686.919 36.448C686.919 37.2977 686.833 38.5559 686.643 40.2591L690.619 40.7009C690.814 38.9481 690.919 37.5183 690.919 36.448H686.919ZM686.635 40.3626C686.548 41.8371 686.287 43.3193 685.848 44.8117L689.686 45.9403C690.207 44.1687 690.522 42.3869 690.628 40.5974L686.635 40.3626ZM685.848 44.8117C685.444 46.1876 684.805 47.3773 683.936 48.4041L686.99 50.9879C688.233 49.5187 689.131 47.8284 689.686 45.9403L685.848 44.8117ZM683.927 48.4156C683.407 49.0393 682.667 49.424 681.431 49.424V53.424C683.652 53.424 685.599 52.6566 687 50.9764L683.927 48.4156ZM681.431 49.424H653.927V53.424H681.431V49.424ZM653.927 49.424C653.755 49.424 653.994 49.3824 654.261 49.6498C654.529 49.9171 654.487 50.1557 654.487 49.984H650.487C650.487 50.7723 650.686 51.7309 651.433 52.4782C652.18 53.2256 653.139 53.424 653.927 53.424V49.424ZM654.487 49.984V22.912H650.487V49.984H654.487ZM654.487 22.912C654.487 22.7403 654.529 22.9789 654.261 23.2462C653.994 23.5136 653.755 23.472 653.927 23.472V19.472C653.139 19.472 652.18 19.6704 651.433 20.4178C650.686 21.1651 650.487 22.1237 650.487 22.912H654.487ZM653.927 23.472H681.431V19.472H653.927V23.472ZM716.99 96.352L715.147 97.1281L715.172 97.1882L715.201 97.2464L716.99 96.352ZM724.91 104.704L723.939 106.452L723.977 106.473L724.016 106.493L724.91 104.704ZM721.166 8.944L722.667 10.2661L722.675 10.2573L722.682 10.2485L721.166 8.944ZM713.838 90.88C713.838 92.9925 714.284 95.0795 715.147 97.1281L718.833 95.5759C718.16 93.9765 717.838 92.4155 717.838 90.88H713.838ZM715.201 97.2464C716.153 99.1494 717.368 100.891 718.84 102.469L721.764 99.7394C720.549 98.4368 719.556 97.0106 718.779 95.4576L715.201 97.2464ZM718.84 102.469C720.327 104.062 722.029 105.391 723.939 106.452L725.881 102.956C724.335 102.097 722.965 101.026 721.764 99.7394L718.84 102.469ZM724.016 106.493C725.988 107.479 728.021 108 730.094 108V104C728.712 104 727.288 103.657 725.805 102.915L724.016 106.493ZM730.094 108H785.822V104H730.094V108ZM785.822 108C786.61 108 787.569 107.802 788.316 107.054C789.064 106.307 789.262 105.348 789.262 104.56H785.262C785.262 104.732 785.221 104.493 785.488 104.226C785.755 103.958 785.994 104 785.822 104V108ZM789.262 104.56V88.72H785.262V104.56H789.262ZM789.262 88.72C789.262 87.9317 789.064 86.9731 788.316 86.2258C787.569 85.4784 786.61 85.28 785.822 85.28V89.28C785.994 89.28 785.755 89.3216 785.488 89.0542C785.221 88.7869 785.262 88.5483 785.262 88.72H789.262ZM785.822 85.28H738.158V89.28H785.822V85.28ZM738.158 85.28C737.986 85.28 738.225 85.2384 738.492 85.5058C738.76 85.7731 738.718 86.0117 738.718 85.84H734.718C734.718 86.6283 734.917 87.5869 735.664 88.3342C736.411 89.0816 737.37 89.28 738.158 89.28V85.28ZM738.718 85.84V64.96H734.718V85.84H738.718ZM738.718 64.96C738.718 64.7883 738.76 65.0269 738.492 65.2942C738.225 65.5616 737.986 65.52 738.158 65.52V61.52C737.37 61.52 736.411 61.7184 735.664 62.4658C734.917 63.2131 734.718 64.1717 734.718 64.96H738.718ZM738.158 65.52H782.366V61.52H738.158V65.52ZM782.366 65.52C783.154 65.52 784.113 65.3216 784.86 64.5742C785.608 63.8269 785.806 62.8683 785.806 62.08H781.806C781.806 62.2517 781.765 62.0131 782.032 61.7458C782.299 61.4784 782.538 61.52 782.366 61.52V65.52ZM785.806 62.08V45.52H781.806V62.08H785.806ZM785.806 45.52C785.806 44.7317 785.608 43.7731 784.86 43.0258C784.113 42.2784 783.154 42.08 782.366 42.08V46.08C782.538 46.08 782.299 46.1216 782.032 45.8542C781.765 45.5869 781.806 45.3483 781.806 45.52H785.806ZM782.366 42.08H738.158V46.08H782.366V42.08ZM738.158 42.08C737.986 42.08 738.225 42.0384 738.492 42.3058C738.76 42.5731 738.718 42.8117 738.718 42.64H734.718C734.718 43.4283 734.917 44.3869 735.664 45.1342C736.411 45.8816 737.37 46.08 738.158 46.08V42.08ZM738.718 42.64V23.056H734.718V42.64H738.718ZM738.718 23.056C738.718 22.7916 738.782 22.9666 738.558 23.2133C738.445 23.3377 738.316 23.4122 738.217 23.4488C738.128 23.4811 738.096 23.472 738.158 23.472V19.472C737.318 19.472 736.335 19.7118 735.598 20.5226C734.894 21.2974 734.718 22.2644 734.718 23.056H738.718ZM738.158 23.472H785.822V19.472H738.158V23.472ZM785.822 23.472C786.61 23.472 787.569 23.2736 788.316 22.5262C789.064 21.7789 789.262 20.8203 789.262 20.032H785.262C785.262 20.2037 785.221 19.9651 785.488 19.6978C785.755 19.4304 785.994 19.472 785.822 19.472V23.472ZM789.262 20.032V4.192H785.262V20.032H789.262ZM789.262 4.192C789.262 3.24273 788.927 2.22911 788.014 1.52675C787.2 0.900874 786.215 0.751999 785.39 0.751999V4.752C785.58 4.752 785.68 4.77098 785.712 4.77933C785.742 4.78697 785.676 4.77529 785.575 4.69725C785.463 4.6111 785.367 4.48958 785.31 4.35721C785.258 4.23677 785.262 4.16598 785.262 4.192H789.262ZM785.39 0.751999H736.574V4.752H785.39V0.751999ZM736.574 0.751999C729.42 0.751999 723.669 2.96881 719.65 7.63951L722.682 10.2485C725.767 6.66318 730.288 4.752 736.574 4.752V0.751999ZM719.665 7.62194C715.726 12.0937 713.838 17.8787 713.838 24.784H717.838C717.838 18.6333 719.502 13.8583 722.667 10.2661L719.665 7.62194ZM713.838 24.784V90.88H717.838V24.784H713.838Z" fill="#F0F0F0"/>
</svg>
